<svg width="1354" height="159" viewBox="0 0 1354 159" fill="none" xmlns="http://www.w3.org/2000/svg">
<circle cx="190.5" cy="100.5" r="40" fill="#EAF5D1" stroke="#243C30"/>
<circle cx="915" cy="92" r="50.5" fill="#EAF5D1" stroke="#243C30"/>
<circle cx="148" cy="52" r="13.5" fill="#EAF5D1" stroke="#243C30"/>
<circle cx="143" cy="81" r="6.5" fill="#EAF5D1" stroke="#243C30"/>
<circle cx="87" cy="130" r="10.5" fill="#EAF5D1" stroke="#243C30"/>
<circle cx="102.5" cy="36.5" r="4" fill="#EAF5D1" stroke="#243C30"/>
<circle cx="57.5" cy="145.5" r="4" fill="#EAF5D1" stroke="#243C30"/>
<circle cx="133.5" cy="113.5" r="4" fill="#EAF5D1" stroke="#243C30"/>
<circle cx="228.5" cy="79.5" r="4" fill="#EAF5D1" stroke="#243C30"/>
<circle cx="711.858" cy="79.8583" r="4" transform="rotate(-67.9934 711.858 79.8583)" fill="#EAF5D1" stroke="#243C30"/>
<circle cx="259.5" cy="82.5" r="4" fill="#EAF5D1" stroke="#243C30"/>
<circle cx="265" cy="80" r="1.5" fill="#EAF5D1" stroke="#243C30"/>
<circle cx="234" cy="79" r="1.5" fill="#EAF5D1" stroke="#243C30"/>
<circle cx="750.509" cy="77.5087" r="2.96324" transform="rotate(-67.9934 750.509 77.5087)" fill="#EAF5D1" stroke="#243C30"/>
<circle cx="283.5" cy="104.5" r="4" fill="#EAF5D1" stroke="#243C30"/>
<circle cx="283.5" cy="82.5" r="4" fill="#EAF5D1" stroke="#243C30"/>
<circle cx="405.5" cy="79.5" r="4" fill="#EAF5D1" stroke="#243C30"/>
<circle cx="365.5" cy="98.5" r="4" fill="#EAF5D1" stroke="#243C30"/>
<circle cx="412" cy="80" r="2.5" fill="#EAF5D1" stroke="#243C30"/>
<circle cx="376" cy="80" r="2.5" fill="#EAF5D1" stroke="#243C30"/>
<circle cx="381" cy="78" r="2.5" fill="#EAF5D1" stroke="#243C30"/>
<circle cx="415" cy="89" r="2.5" fill="#EAF5D1" stroke="#243C30"/>
<circle cx="627.5" cy="83.5" r="4" fill="#EAF5D1" stroke="#243C30"/>
<circle cx="667.5" cy="102.5" r="4" fill="#EAF5D1" stroke="#243C30"/>
<circle cx="732" cy="89" r="2.5" fill="#EAF5D1" stroke="#243C30"/>
<circle cx="741.5" cy="80.5" r="4" fill="#EAF5D1" stroke="#243C30"/>
<circle cx="969.5" cy="77.5" r="4" fill="#EAF5D1" stroke="#243C30"/>
<circle cx="1019.5" cy="104.5" r="4" fill="#EAF5D1" stroke="#243C30"/>
<circle cx="996.5" cy="80.5" r="4" fill="#EAF5D1" stroke="#243C30"/>
<circle cx="1006" cy="80" r="2.5" fill="#EAF5D1" stroke="#243C30"/>
<circle cx="1069.5" cy="77.5" r="2" fill="#EAF5D1" stroke="#243C30"/>
<circle cx="1104.5" cy="80.5" r="2" fill="#EAF5D1" stroke="#243C30"/>
<circle cx="1061.5" cy="79.5" r="4" fill="#EAF5D1" stroke="#243C30"/>
<circle cx="1271.5" cy="12.5" r="4" fill="#EAF5D1" stroke="#243C30"/>
<circle cx="1205.5" cy="83.5" r="4" fill="#EAF5D1" stroke="#243C30"/>
<circle cx="1215" cy="77" r="5.5" fill="#EAF5D1" stroke="#243C30"/>
<circle cx="1222" cy="78" r="2.5" fill="#EAF5D1" stroke="#243C30"/>
<circle cx="1197" cy="80" r="2.5" fill="#EAF5D1" stroke="#243C30"/>
<circle cx="483.5" cy="82.5" r="4" fill="#EAF5D1" stroke="#243C30"/>
<circle cx="184.5" cy="154.5" r="4" fill="#EAF5D1" stroke="#243C30"/>
<circle cx="247" cy="78" r="10.5" fill="#EAF5D1" stroke="#243C30"/>
<circle cx="273.5" cy="77.5" r="6" fill="#EAF5D1" stroke="#243C30"/>
<circle cx="431" cy="73" r="10.5" fill="#EAF5D1" stroke="#243C30"/>
<circle cx="727.32" cy="72.3203" r="10.5" transform="rotate(-67.9934 727.32 72.3203)" fill="#EAF5D1" stroke="#243C30"/>
<circle cx="297" cy="79" r="10.5" fill="#EAF5D1" stroke="#243C30"/>
<circle cx="365" cy="77" r="10.5" fill="#EAF5D1" stroke="#243C30"/>
<circle cx="393" cy="80" r="10.5" fill="#EAF5D1" stroke="#243C30"/>
<circle cx="498" cy="111" r="10.5" fill="#EAF5D1" stroke="#243C30"/>
<circle cx="617" cy="102" r="10.5" fill="#EAF5D1" stroke="#243C30"/>
<circle cx="747" cy="103" r="10.5" fill="#EAF5D1" stroke="#243C30"/>
<circle cx="987" cy="72" r="10.5" fill="#EAF5D1" stroke="#243C30"/>
<circle cx="780" cy="86" r="10.5" fill="#EAF5D1" stroke="#243C30"/>
<circle cx="312.5" cy="99.5" r="20" fill="#EAF5D1" stroke="#243C30"/>
<circle cx="260.5" cy="115.5" r="9" fill="#EAF5D1" stroke="#243C30"/>
<circle cx="462.5" cy="91.5" r="20" fill="#EAF5D1" stroke="#243C30"/>
<circle cx="376" cy="127" r="15.5" fill="#EAF5D1" stroke="#243C30"/>
<circle cx="583.5" cy="71.5" r="20" fill="#EAF5D1" stroke="#243C30"/>
<circle cx="616.5" cy="71.5" r="9" fill="#EAF5D1" stroke="#243C30"/>
<circle cx="647.298" cy="86.2982" r="9" transform="rotate(12.2404 647.298 86.2982)" fill="#EAF5D1" stroke="#243C30"/>
<circle cx="767.5" cy="62.5" r="20" fill="#EAF5D1" stroke="#243C30"/>
<circle cx="945.5" cy="47.5" r="20" fill="#EAF5D1" stroke="#243C30"/>
<circle cx="1072.5" cy="112.5" r="20" fill="#EAF5D1" stroke="#243C30"/>
<circle cx="333" cy="69" r="28.5" fill="#EAF5D1" stroke="#243C30"/>
<circle cx="1036" cy="61" r="28.5" fill="#EAF5D1" stroke="#243C30"/>
<circle cx="826" cy="87" r="28.5" fill="#EAF5D1" stroke="#243C30"/>
<circle cx="981" cy="119" r="28.5" fill="#EAF5D1" stroke="#243C30"/>
<circle cx="1133" cy="68" r="28.5" fill="#EAF5D1" stroke="#243C30"/>
<circle cx="1252" cy="80" r="28.5" fill="#EAF5D1" stroke="#243C30"/>
<circle cx="1303" cy="68" r="50.5" fill="#EAF5D1" stroke="#243C30"/>
<circle cx="527" cy="51" r="50.5" fill="#EAF5D1" stroke="#243C30"/>
<circle cx="1168.5" cy="87.5" r="20" fill="#EAF5D1" stroke="#243C30"/>
<circle cx="1228.5" cy="28.5" r="20" fill="#EAF5D1" stroke="#243C30"/>
<circle cx="1189" cy="72" r="10.5" fill="#EAF5D1" stroke="#243C30"/>
<circle cx="1283" cy="129" r="10.5" fill="#EAF5D1" stroke="#243C30"/>
<circle cx="51" cy="71" r="50.5" fill="#EAF5D1" stroke="#243C30"/>
<circle cx="110.5" cy="88.5" r="23" fill="#EAF5D1" stroke="#243C30"/>
<circle cx="796.5" cy="79.5" r="4" fill="#EAF5D1" stroke="#243C30"/>
<circle cx="841.5" cy="79.5" r="4" fill="#EAF5D1" stroke="#243C30"/>
<circle cx="610.5" cy="39.5" r="4" fill="#EAF5D1" stroke="#243C30"/>
<circle cx="863" cy="75" r="10.5" fill="#EAF5D1" stroke="#243C30"/>
<circle cx="1020" cy="79" r="10.5" fill="#EAF5D1" stroke="#243C30"/>
<circle cx="664" cy="79" r="10.5" fill="#EAF5D1" stroke="#243C30"/>
<circle cx="688.5" cy="79.5" r="20" fill="#EAF5D1" stroke="#243C30"/>
<circle cx="442" cy="79" r="4.5" fill="#EAF5D1" stroke="#243C30"/>
<circle cx="421" cy="81" r="4.5" fill="#EAF5D1" stroke="#243C30"/>
<circle cx="1093" cy="86" r="10.5" fill="#EAF5D1" stroke="#243C30"/>
<circle cx="1081.5" cy="78.5" r="7" fill="#EAF5D1" stroke="#243C30"/>
</svg>
