<svg width="98" height="39" viewBox="0 0 98 39" fill="none" xmlns="http://www.w3.org/2000/svg">
<circle cx="19" cy="19" r="19" fill="#FFD310"/>
<path d="M9.55 24.83C9.05 24.83 8.67 24.72 8.41 24.5C8.17 24.26 8.05 23.99 8.05 23.69C8.05 23.39 8.17 23.13 8.41 22.91C8.67 22.69 9.05 22.58 9.55 22.58C8.87 22.58 8.41 22.47 8.17 22.25C7.95 22.03 7.95 21.81 8.17 21.59C8.41 21.37 8.87 21.26 9.55 21.26C9.05 21.26 8.68 21.15 8.44 20.93C8.2 20.69 8.08 20.42 8.08 20.12C8.08 19.82 8.2 19.56 8.44 19.34C8.68 19.1 9.05 18.98 9.55 18.98C8.97 18.98 8.53 18.81 8.23 18.47C7.95 18.11 7.81 17.7 7.81 17.24C7.81 16.78 7.95 16.38 8.23 16.04C8.53 15.68 8.97 15.5 9.55 15.5C9.03 15.5 8.64 15.32 8.38 14.96C8.12 14.58 7.99 14.15 7.99 13.67C7.99 13.17 8.12 12.74 8.38 12.38C8.64 12 9.03 11.81 9.55 11.81C9.07 11.79 8.71 11.64 8.47 11.36C8.25 11.06 8.14 10.72 8.14 10.34C8.14 9.96 8.26 9.63 8.5 9.35C8.74 9.05 9.1 8.9 9.58 8.9C9.58 8.3 9.72 7.86 10 7.58C10.28 7.28 10.6 7.13 10.96 7.13C11.32 7.13 11.64 7.28 11.92 7.58C12.2 7.86 12.34 8.3 12.34 8.9C12.34 8.34 12.47 7.92 12.73 7.64C13.01 7.36 13.32 7.22 13.66 7.22C14 7.22 14.3 7.36 14.56 7.64C14.84 7.92 14.98 8.34 14.98 8.9C15.6 8.8 16.03 8.87 16.27 9.11C16.51 9.33 16.55 9.59 16.39 9.89C16.25 10.19 15.87 10.39 15.25 10.49C15.93 10.49 16.41 10.68 16.69 11.06C16.99 11.42 17.09 11.82 16.99 12.26C16.89 12.68 16.6 12.99 16.12 13.19C16.48 13.25 16.77 13.43 16.99 13.73C17.23 14.01 17.37 14.32 17.41 14.66C17.81 14.42 18.27 14.32 18.79 14.36C19.33 14.4 19.76 14.59 20.08 14.93C20.1 14.59 20.24 14.37 20.5 14.27C20.3 13.91 20.31 13.53 20.53 13.13C20.77 12.73 21.23 12.53 21.91 12.53C21.31 12.53 20.86 12.35 20.56 11.99C20.28 11.63 20.14 11.21 20.14 10.73C20.14 10.25 20.28 9.83 20.56 9.47C20.86 9.11 21.31 8.93 21.91 8.93C21.91 8.43 22.05 8.05 22.33 7.79C22.61 7.53 22.93 7.4 23.29 7.4C23.65 7.38 23.97 7.5 24.25 7.76C24.55 8.02 24.7 8.4 24.7 8.9C24.7 8.32 24.81 7.88 25.03 7.58C25.25 7.28 25.5 7.13 25.78 7.13C26.06 7.13 26.31 7.28 26.53 7.58C26.75 7.88 26.86 8.32 26.86 8.9C27.22 8.82 27.53 8.91 27.79 9.17C28.05 9.41 28.23 9.73 28.33 10.13C28.43 10.53 28.42 10.91 28.3 11.27C28.2 11.61 27.97 11.83 27.61 11.93C28.19 11.93 28.62 12.13 28.9 12.53C29.18 12.91 29.32 13.37 29.32 13.91C29.32 14.43 29.18 14.89 28.9 15.29C28.62 15.67 28.19 15.86 27.61 15.86C28.21 15.86 28.65 16.04 28.93 16.4C29.23 16.76 29.38 17.18 29.38 17.66C29.38 18.14 29.23 18.56 28.93 18.92C28.65 19.28 28.21 19.46 27.61 19.46C28.21 19.46 28.65 19.65 28.93 20.03C29.23 20.41 29.38 20.86 29.38 21.38C29.38 21.88 29.23 22.33 28.93 22.73C28.65 23.11 28.21 23.3 27.61 23.3C28.25 23.3 28.67 23.4 28.87 23.6C29.09 23.78 29.09 23.97 28.87 24.17C28.67 24.37 28.25 24.47 27.61 24.47C28.07 24.47 28.41 24.6 28.63 24.86C28.87 25.12 28.99 25.42 28.99 25.76C28.99 26.08 28.87 26.37 28.63 26.63C28.41 26.87 28.07 26.99 27.61 26.99C27.79 27.39 27.8 27.75 27.64 28.07C27.48 28.37 27.24 28.59 26.92 28.73C26.6 28.87 26.27 28.9 25.93 28.82C25.61 28.74 25.36 28.5 25.18 28.1C25.2 28.62 25.04 29.01 24.7 29.27C24.38 29.55 24 29.69 23.56 29.69C23.14 29.71 22.76 29.59 22.42 29.33C22.1 29.09 21.93 28.71 21.91 28.19C21.51 28.19 21.2 28.01 20.98 27.65C20.76 27.29 20.62 26.87 20.56 26.39C20.52 25.89 20.57 25.42 20.71 24.98C20.85 24.52 21.09 24.2 21.43 24.02C20.81 24.12 20.32 23.96 19.96 23.54C19.62 23.1 19.49 22.63 19.57 22.13C18.83 22.37 18.11 22.36 17.41 22.1C17.45 22.34 17.39 22.55 17.23 22.73C17.09 22.91 16.88 23.02 16.6 23.06C16.96 23.32 17.03 23.63 16.81 23.99C16.59 24.33 16.07 24.5 15.25 24.5C16.03 24.5 16.54 24.61 16.78 24.83C17.04 25.05 17.04 25.27 16.78 25.49C16.54 25.71 16.03 25.82 15.25 25.82C15.73 25.82 16.09 25.93 16.33 26.15C16.59 26.37 16.72 26.63 16.72 26.93C16.72 27.23 16.59 27.5 16.33 27.74C16.09 27.96 15.73 28.07 15.25 28.07C15.27 28.83 15.19 29.33 15.01 29.57C14.83 29.83 14.64 29.83 14.44 29.57C14.26 29.33 14.16 28.84 14.14 28.1C14.14 28.58 14.03 28.93 13.81 29.15C13.59 29.39 13.34 29.51 13.06 29.51C12.78 29.51 12.53 29.39 12.31 29.15C12.09 28.93 11.98 28.58 11.98 28.1C11.98 28.88 11.87 29.4 11.65 29.66C11.43 29.92 11.21 29.92 10.99 29.66C10.77 29.4 10.66 28.88 10.66 28.1C10.66 28.62 10.6 28.99 10.48 29.21C10.36 29.45 10.22 29.47 10.06 29.27C9.92 29.07 9.79 28.62 9.67 27.92C9.57 27.2 9.53 26.17 9.55 24.83Z" fill="white"/>
<circle cx="50" cy="19" r="19" fill="#FFD310"/>
<path d="M47.1 28.25C47 28.69 46.78 28.98 46.44 29.12C46.1 29.28 45.74 29.31 45.36 29.21C45 29.13 44.7 28.95 44.46 28.67C44.24 28.37 44.19 28 44.31 27.56C44.05 27.94 43.72 28.14 43.32 28.16C42.92 28.16 42.54 28.04 42.18 27.8C41.84 27.56 41.59 27.26 41.43 26.9C41.29 26.52 41.35 26.14 41.61 25.76C41.21 25.98 40.86 26.05 40.56 25.97C40.26 25.87 40.04 25.7 39.9 25.46C39.76 25.2 39.74 24.93 39.84 24.65C39.94 24.35 40.19 24.09 40.59 23.87C40.47 23.45 40.5 23.11 40.68 22.85C40.88 22.57 41.14 22.38 41.46 22.28C41.78 22.18 42.09 22.2 42.39 22.34C42.71 22.48 42.93 22.75 43.05 23.15C43.13 22.73 43.39 22.45 43.83 22.31C44.27 22.17 44.76 22.14 45.3 22.22C45.84 22.3 46.31 22.47 46.71 22.73C47.13 22.99 47.36 23.33 47.4 23.75C47.46 23.41 47.65 23.14 47.97 22.94C48.29 22.74 48.67 22.61 49.11 22.55C49.55 22.49 49.97 22.5 50.37 22.58C50.35 22.34 50.43 22.1 50.61 21.86C50.43 21.66 50.39 21.38 50.49 21.02C50.31 21.4 49.97 21.64 49.47 21.74C48.99 21.84 48.48 21.83 47.94 21.71C47.4 21.59 46.94 21.38 46.56 21.08C46.2 20.78 46.06 20.41 46.14 19.97C45.98 20.37 45.69 20.61 45.27 20.69C44.87 20.75 44.46 20.69 44.04 20.51C43.62 20.33 43.29 20.07 43.05 19.73C42.81 19.39 42.78 19.03 42.96 18.65C42.6 18.91 42.24 19 41.88 18.92C41.52 18.82 41.23 18.62 41.01 18.32C40.79 18.02 40.68 17.69 40.68 17.33C40.68 16.97 40.86 16.65 41.22 16.37C40.72 16.43 40.33 16.37 40.05 16.19C39.79 16.01 39.64 15.79 39.6 15.53C39.56 15.25 39.65 14.99 39.87 14.75C40.09 14.49 40.45 14.33 40.95 14.27C40.41 14.13 40.02 13.93 39.78 13.67C39.56 13.39 39.48 13.12 39.54 12.86C39.62 12.6 39.82 12.41 40.14 12.29C40.48 12.15 40.92 12.16 41.46 12.32C41.02 11.98 40.76 11.64 40.68 11.3C40.6 10.94 40.64 10.65 40.8 10.43C40.98 10.21 41.24 10.1 41.58 10.1C41.94 10.1 42.34 10.27 42.78 10.61C42.54 10.21 42.45 9.85 42.51 9.53C42.57 9.21 42.72 8.98 42.96 8.84C43.2 8.68 43.47 8.65 43.77 8.75C44.09 8.83 44.37 9.07 44.61 9.47C44.51 9.03 44.57 8.67 44.79 8.39C45.03 8.09 45.34 7.89 45.72 7.79C46.1 7.69 46.46 7.71 46.8 7.85C47.16 7.99 47.4 8.27 47.52 8.69C47.54 8.27 47.7 7.94 48 7.7C48.3 7.44 48.66 7.28 49.08 7.22C49.52 7.14 49.95 7.16 50.37 7.28C50.81 7.38 51.16 7.57 51.42 7.85C51.7 8.11 51.83 8.46 51.81 8.9C52.01 8.5 52.3 8.25 52.68 8.15C53.06 8.05 53.47 8.06 53.91 8.18C54.37 8.28 54.78 8.47 55.14 8.75C55.52 9.01 55.79 9.33 55.95 9.71C56.13 10.07 56.13 10.44 55.95 10.82C56.27 10.64 56.6 10.64 56.94 10.82C57.28 11 57.56 11.28 57.78 11.66C58 12.04 58.11 12.42 58.11 12.8C58.11 13.18 57.95 13.47 57.63 13.67C57.63 14.07 57.43 14.37 57.03 14.57C56.65 14.77 56.21 14.87 55.71 14.87C55.21 14.87 54.76 14.77 54.36 14.57C53.98 14.37 53.79 14.07 53.79 13.67C53.71 14.05 53.5 14.3 53.16 14.42C52.82 14.54 52.45 14.57 52.05 14.51C51.65 14.43 51.3 14.27 51 14.03C50.72 13.79 50.59 13.49 50.61 13.13C50.55 13.45 50.37 13.68 50.07 13.82C49.79 13.96 49.49 14.01 49.17 13.97C49.25 14.49 49.09 14.92 48.69 15.26C48.71 15.4 48.69 15.56 48.63 15.74C48.85 15.44 49.21 15.26 49.71 15.2C50.23 15.12 50.76 15.15 51.3 15.29C51.86 15.41 52.32 15.62 52.68 15.92C53.04 16.2 53.19 16.54 53.13 16.94C53.27 16.58 53.54 16.38 53.94 16.34C54.36 16.28 54.8 16.34 55.26 16.52C55.72 16.68 56.09 16.92 56.37 17.24C56.67 17.56 56.75 17.89 56.61 18.23C56.95 18.03 57.29 18.03 57.63 18.23C57.99 18.43 58.29 18.73 58.53 19.13C58.77 19.53 58.89 19.94 58.89 20.36C58.91 20.76 58.75 21.06 58.41 21.26C58.85 21.32 59.15 21.54 59.31 21.92C59.49 22.3 59.54 22.71 59.46 23.15C59.4 23.59 59.23 23.96 58.95 24.26C58.69 24.56 58.33 24.68 57.87 24.62C58.11 24.9 58.18 25.23 58.08 25.61C58 25.97 57.81 26.33 57.51 26.69C57.21 27.03 56.86 27.32 56.46 27.56C56.06 27.78 55.67 27.91 55.29 27.95C54.91 27.97 54.6 27.83 54.36 27.53C54.46 27.99 54.36 28.37 54.06 28.67C53.76 28.97 53.37 29.17 52.89 29.27C52.43 29.39 52 29.37 51.6 29.21C51.2 29.07 50.95 28.78 50.85 28.34C50.89 29.3 50.57 29.78 49.89 29.78C49.23 29.8 48.3 29.29 47.1 28.25Z" fill="white"/>
<circle cx="79" cy="19" r="19" fill="#FFD310"/>
<path d="M75.8 28.51C75.24 28.51 74.81 28.41 74.51 28.21C74.23 27.99 74.09 27.75 74.09 27.49C74.09 27.23 74.23 27 74.51 26.8C74.81 26.58 75.24 26.47 75.8 26.47C75.22 26.47 74.8 26.38 74.54 26.2C74.3 26.02 74.21 25.83 74.27 25.63C74.33 25.41 74.55 25.25 74.93 25.15C74.51 25.11 74.2 24.98 74 24.76C73.8 24.52 73.74 24.25 73.82 23.95C73.92 23.63 74.18 23.36 74.6 23.14C74.12 23.28 73.77 23.26 73.55 23.08C73.33 22.9 73.28 22.65 73.4 22.33C73.54 22.01 73.89 21.7 74.45 21.4C73.99 21.64 73.6 21.73 73.28 21.67C72.96 21.59 72.74 21.43 72.62 21.19C72.5 20.95 72.51 20.69 72.65 20.41C72.79 20.11 73.09 19.84 73.55 19.6C72.89 19.92 72.38 20 72.02 19.84C71.68 19.66 71.54 19.37 71.6 18.97C71.68 18.57 72.04 18.21 72.68 17.89C72.26 18.11 71.88 18.16 71.54 18.04C71.22 17.92 70.98 17.71 70.82 17.41C70.68 17.11 70.66 16.8 70.76 16.48C70.86 16.14 71.12 15.86 71.54 15.64C71.06 15.9 70.63 15.97 70.25 15.85C69.89 15.71 69.62 15.48 69.44 15.16C69.28 14.84 69.26 14.5 69.38 14.14C69.5 13.76 69.81 13.45 70.31 13.21C69.77 13.47 69.3 13.54 68.9 13.42C68.5 13.28 68.21 13.04 68.03 12.7C67.87 12.34 67.86 11.96 68 11.56C68.12 11.14 68.44 10.8 68.96 10.54C69.48 9.64 69.85 9.24 70.07 9.34C70.31 9.1 70.57 9.11 70.85 9.37C71.13 9.63 71.27 10.14 71.27 10.9C71.27 10.38 71.43 9.99 71.75 9.73C72.09 9.47 72.47 9.34 72.89 9.34C73.33 9.34 73.71 9.47 74.03 9.73C74.37 9.99 74.54 10.38 74.54 10.9C75.16 10.5 75.65 10.35 76.01 10.45C76.37 10.55 76.52 10.79 76.46 11.17C76.4 11.53 76.05 11.91 75.41 12.31C75.91 12.07 76.33 11.98 76.67 12.04C77.01 12.08 77.24 12.22 77.36 12.46C77.48 12.7 77.46 12.98 77.3 13.3C77.14 13.6 76.81 13.87 76.31 14.11C76.65 13.95 76.97 13.97 77.27 14.17C77.59 14.35 77.84 14.63 78.02 15.01C78.2 15.37 78.27 15.73 78.23 16.09C78.21 16.45 78.03 16.71 77.69 16.87C78.07 16.69 78.41 16.64 78.71 16.72C78.65 16.42 78.68 16.08 78.8 15.7C78.92 15.32 79.1 14.98 79.34 14.68C79.58 14.36 79.84 14.13 80.12 13.99C80.42 13.85 80.72 13.86 81.02 14.02C80.32 13.66 79.91 13.3 79.79 12.94C79.69 12.56 79.82 12.31 80.18 12.19C80.54 12.05 81.07 12.16 81.77 12.52C81.55 12.14 81.53 11.77 81.71 11.41C81.91 11.05 82.2 10.77 82.58 10.57C82.98 10.35 83.38 10.26 83.78 10.3C84.18 10.32 84.49 10.52 84.71 10.9C84.71 10.12 84.82 9.6 85.04 9.34C85.26 9.08 85.48 9.06 85.7 9.28C85.92 9.5 86.03 9.96 86.03 10.66C86.05 10.08 86.23 9.69 86.57 9.49C86.93 9.29 87.28 9.29 87.62 9.49C87.98 9.69 88.18 10.1 88.22 10.72C88.74 10.98 89.03 11.36 89.09 11.86C89.17 12.34 89.09 12.82 88.85 13.3C88.61 13.78 88.27 14.14 87.83 14.38C87.39 14.62 86.91 14.61 86.39 14.35C86.79 14.55 87.04 14.84 87.14 15.22C87.24 15.6 87.23 16.01 87.11 16.45C86.99 16.89 86.79 17.29 86.51 17.65C86.23 17.99 85.9 18.24 85.52 18.4C85.16 18.54 84.79 18.51 84.41 18.31C84.95 18.59 85.26 18.88 85.34 19.18C85.42 19.48 85.31 19.69 85.01 19.81C84.73 19.93 84.31 19.86 83.75 19.6C84.25 19.84 84.56 20.13 84.68 20.47C84.82 20.79 84.82 21.1 84.68 21.4C84.54 21.68 84.29 21.87 83.93 21.97C83.59 22.05 83.17 21.97 82.67 21.73C83.27 21.99 83.63 22.34 83.75 22.78C83.87 23.22 83.8 23.62 83.54 23.98C83.3 24.34 82.93 24.52 82.43 24.52C82.77 24.7 83.01 24.96 83.15 25.3C83.29 25.62 83.32 25.96 83.24 26.32C83.16 26.66 82.97 26.95 82.67 27.19C82.39 27.43 82 27.55 81.5 27.55C81.9 27.75 82.14 28.03 82.22 28.39C82.3 28.73 82.26 29.07 82.1 29.41C81.94 29.75 81.69 30 81.35 30.16C81.03 30.32 80.67 30.3 80.27 30.1C80.27 30.48 80.11 30.78 79.79 31C79.49 31.24 79.11 31.37 78.65 31.39C78.21 31.43 77.77 31.35 77.33 31.15C76.89 30.97 76.52 30.66 76.22 30.22C75.92 29.78 75.78 29.21 75.8 28.51Z" fill="white"/>
</svg>
