<svg width="667" height="451" viewBox="0 0 667 451" fill="none" xmlns="http://www.w3.org/2000/svg">
<circle cx="277.5" cy="370.5" r="80" fill="#EAF5D1" stroke="#243C30"/>
<circle cx="105" cy="154" r="104.5" fill="#EAF5D1" stroke="#243C30"/>
<circle cx="562" cy="309" r="104.5" fill="#EAF5D1" stroke="#243C30"/>
<circle cx="377" cy="105" r="104.5" fill="#EAF5D1" stroke="#243C30"/>
<path d="M222.25 350.95H245.6L233.6 388.4H224.2L235.9 351.85H222.25V350.95ZM263.946 350.15C265.879 350.15 267.713 350.65 269.446 351.65C271.179 352.65 272.679 354.017 273.946 355.75C275.213 357.45 276.213 359.45 276.946 361.75C277.713 364.05 278.096 366.517 278.096 369.15C278.096 371.783 277.713 374.25 276.946 376.55C276.213 378.85 275.213 380.867 273.946 382.6C272.679 384.3 271.179 385.65 269.446 386.65C267.713 387.65 265.879 388.15 263.946 388.15C261.979 388.15 260.129 387.65 258.396 386.65C256.696 385.65 255.196 384.3 253.896 382.6C252.629 380.867 251.613 378.85 250.846 376.55C250.113 374.25 249.746 371.783 249.746 369.15C249.746 366.517 250.113 364.05 250.846 361.75C251.613 359.45 252.629 357.45 253.896 355.75C255.196 354.017 256.696 352.65 258.396 351.65C260.129 350.65 261.979 350.15 263.946 350.15ZM263.946 386.85C264.579 386.85 265.179 386.383 265.746 385.45C266.346 384.517 266.863 383.25 267.296 381.65C267.729 380.017 268.063 378.133 268.296 376C268.563 373.833 268.696 371.55 268.696 369.15C268.696 366.75 268.563 364.483 268.296 362.35C268.063 360.183 267.729 358.3 267.296 356.7C266.863 355.067 266.346 353.783 265.746 352.85C265.179 351.917 264.579 351.45 263.946 351.45C263.279 351.45 262.646 351.917 262.046 352.85C261.479 353.783 260.979 355.067 260.546 356.7C260.113 358.3 259.763 360.183 259.496 362.35C259.263 364.483 259.146 366.75 259.146 369.15C259.146 371.55 259.263 373.833 259.496 376C259.763 378.133 260.113 380.017 260.546 381.65C260.979 383.25 261.479 384.517 262.046 385.45C262.646 386.383 263.279 386.85 263.946 386.85ZM299.603 352.7C301.303 353.367 302.686 354.35 303.753 355.65C304.819 356.95 305.353 358.4 305.353 360C305.353 361.133 305.069 362.2 304.503 363.2C303.969 364.2 303.219 365.083 302.253 365.85C301.286 366.583 300.153 367.167 298.853 367.6C297.586 368.033 296.219 368.25 294.753 368.25C293.286 368.25 291.903 368.033 290.603 367.6C289.336 367.167 288.219 366.583 287.253 365.85C286.286 365.083 285.519 364.2 284.953 363.2C284.419 362.2 284.153 361.133 284.153 360C284.153 358.4 284.686 356.95 285.753 355.65C286.819 354.35 288.203 353.367 289.903 352.7C291.336 352.1 292.953 351.8 294.753 351.8C296.519 351.8 298.136 352.1 299.603 352.7ZM294.753 366.45C295.586 366.45 296.269 366.283 296.803 365.95C297.336 365.617 297.753 365.167 298.053 364.6C298.386 364 298.619 363.317 298.753 362.55C298.886 361.75 298.953 360.9 298.953 360C298.953 359.1 298.886 358.267 298.753 357.5C298.619 356.733 298.386 356.067 298.053 355.5C297.753 354.9 297.336 354.433 296.803 354.1C296.269 353.767 295.586 353.6 294.753 353.6C293.919 353.6 293.219 353.767 292.653 354.1C292.119 354.433 291.686 354.9 291.353 355.5C291.053 356.067 290.836 356.733 290.703 357.5C290.569 358.267 290.503 359.1 290.503 360C290.503 360.9 290.569 361.75 290.703 362.55C290.836 363.317 291.053 364 291.353 364.6C291.686 365.167 292.119 365.617 292.653 365.95C293.219 366.283 293.919 366.45 294.753 366.45ZM325.853 371.2C327.586 371.867 328.969 372.867 330.003 374.2C331.069 375.5 331.603 376.95 331.603 378.55C331.603 379.683 331.319 380.75 330.753 381.75C330.219 382.75 329.469 383.633 328.503 384.4C327.536 385.133 326.403 385.717 325.103 386.15C323.836 386.583 322.469 386.8 321.003 386.8C319.536 386.8 318.169 386.583 316.903 386.15C315.636 385.717 314.519 385.133 313.553 384.4C312.586 383.633 311.819 382.75 311.253 381.75C310.719 380.75 310.453 379.683 310.453 378.55C310.453 376.95 310.986 375.5 312.053 374.2C313.119 372.867 314.503 371.867 316.203 371.2C317.636 370.6 319.236 370.3 321.003 370.3C322.769 370.3 324.386 370.6 325.853 371.2ZM321.003 384.95C321.836 384.95 322.519 384.783 323.053 384.45C323.619 384.117 324.053 383.667 324.353 383.1C324.686 382.5 324.919 381.817 325.053 381.05C325.186 380.25 325.253 379.417 325.253 378.55C325.253 377.65 325.186 376.817 325.053 376.05C324.919 375.25 324.686 374.567 324.353 374C324.053 373.4 323.619 372.933 323.053 372.6C322.519 372.267 321.836 372.1 321.003 372.1C320.203 372.1 319.519 372.267 318.953 372.6C318.419 372.933 317.986 373.4 317.653 374C317.353 374.567 317.136 375.25 317.003 376.05C316.869 376.817 316.803 377.65 316.803 378.55C316.803 379.417 316.869 380.25 317.003 381.05C317.136 381.817 317.353 382.5 317.653 383.1C317.986 383.667 318.419 384.117 318.953 384.45C319.519 384.783 320.203 384.95 321.003 384.95ZM302.753 387.75H294.953L313.253 350.65H321.053L302.753 387.75Z" fill="#243C30"/>
<path d="M240.425 397.59H242.93V410.145C242.93 410.375 242.88 410.575 242.78 410.745C242.69 410.925 242.57 411.08 242.42 411.21C242.27 411.35 242.095 411.465 241.895 411.555C241.705 411.645 241.51 411.72 241.31 411.78C240.83 411.93 240.29 412.02 239.69 412.05H238.52V411.495H239.735C239.875 411.485 239.99 411.42 240.08 411.3C240.18 411.18 240.255 411.04 240.305 410.88C240.355 410.72 240.385 410.57 240.395 410.43C240.415 410.29 240.425 410.195 240.425 410.145V397.59ZM248.118 400.665C248.708 400.665 249.203 400.705 249.603 400.785C250.013 400.855 250.353 400.95 250.623 401.07C250.893 401.19 251.103 401.33 251.253 401.49C251.403 401.64 251.513 401.795 251.583 401.955C251.663 402.115 251.708 402.275 251.718 402.435C251.738 402.595 251.748 402.735 251.748 402.855V408.855H249.978L249.678 408.09C249.358 408.34 249.003 408.53 248.613 408.66C248.223 408.79 247.838 408.855 247.458 408.855C247.108 408.855 246.768 408.8 246.438 408.69C246.108 408.59 245.818 408.435 245.568 408.225C245.318 408.025 245.113 407.77 244.953 407.46C244.803 407.15 244.728 406.785 244.728 406.365C244.728 405.935 244.853 405.575 245.103 405.285C245.363 404.985 245.678 404.745 246.048 404.565C246.418 404.375 246.823 404.225 247.263 404.115C247.703 404.005 248.103 403.925 248.463 403.875C248.833 403.815 249.133 403.775 249.363 403.755C249.603 403.735 249.713 403.71 249.693 403.68V402.855C249.673 402.575 249.593 402.32 249.453 402.09C249.333 401.9 249.158 401.725 248.928 401.565C248.698 401.405 248.363 401.325 247.923 401.325C247.563 401.325 247.273 401.38 247.053 401.49C246.833 401.59 246.658 401.71 246.528 401.85C246.408 401.99 246.323 402.135 246.273 402.285C246.233 402.425 246.208 402.53 246.198 402.6H245.163C245.163 402.5 245.173 402.395 245.193 402.285C245.213 402.185 245.238 402.08 245.268 401.97C245.308 401.85 245.363 401.725 245.433 401.595C245.513 401.465 245.638 401.345 245.808 401.235C245.988 401.115 246.198 401.015 246.438 400.935C246.688 400.855 246.953 400.79 247.233 400.74C247.523 400.69 247.818 400.665 248.118 400.665ZM247.068 406.2C247.068 406.49 247.108 406.745 247.188 406.965C247.268 407.175 247.373 407.355 247.503 407.505C247.643 407.645 247.798 407.755 247.968 407.835C248.148 407.905 248.333 407.94 248.523 407.94C248.723 407.94 248.923 407.885 249.123 407.775C249.323 407.665 249.513 407.495 249.693 407.265V404.565C249.713 404.545 249.663 404.53 249.543 404.52C249.433 404.5 249.278 404.505 249.078 404.535C248.878 404.555 248.658 404.595 248.418 404.655C248.188 404.715 247.973 404.81 247.773 404.94C247.573 405.07 247.403 405.24 247.263 405.45C247.133 405.66 247.068 405.91 247.068 406.2ZM260.419 400.8H261.739L258.199 408.585H257.074C256.544 407.375 256.089 406.35 255.709 405.51C255.329 404.66 255.004 403.95 254.734 403.38C254.464 402.81 254.239 402.36 254.059 402.03C253.889 401.69 253.744 401.435 253.624 401.265C253.514 401.085 253.419 400.97 253.339 400.92C253.259 400.86 253.179 400.82 253.099 400.8C253.119 400.79 253.174 400.785 253.264 400.785C253.354 400.775 253.464 400.77 253.594 400.77C253.804 400.77 254.049 400.78 254.329 400.8C254.619 400.82 254.904 400.87 255.184 400.95C255.474 401.03 255.744 401.145 255.994 401.295C256.244 401.435 256.434 401.625 256.564 401.865L258.169 405.435L260.419 400.8ZM253.084 400.8V400.845C253.084 400.855 253.079 400.835 253.069 400.785L253.099 400.8H253.084ZM265.916 400.665C266.506 400.665 267.001 400.705 267.401 400.785C267.811 400.855 268.151 400.95 268.421 401.07C268.691 401.19 268.901 401.33 269.051 401.49C269.201 401.64 269.311 401.795 269.381 401.955C269.461 402.115 269.506 402.275 269.516 402.435C269.536 402.595 269.546 402.735 269.546 402.855V408.855H267.776L267.476 408.09C267.156 408.34 266.801 408.53 266.411 408.66C266.021 408.79 265.636 408.855 265.256 408.855C264.906 408.855 264.566 408.8 264.236 408.69C263.906 408.59 263.616 408.435 263.366 408.225C263.116 408.025 262.911 407.77 262.751 407.46C262.601 407.15 262.526 406.785 262.526 406.365C262.526 405.935 262.651 405.575 262.901 405.285C263.161 404.985 263.476 404.745 263.846 404.565C264.216 404.375 264.621 404.225 265.061 404.115C265.501 404.005 265.901 403.925 266.261 403.875C266.631 403.815 266.931 403.775 267.161 403.755C267.401 403.735 267.511 403.71 267.491 403.68V402.855C267.471 402.575 267.391 402.32 267.251 402.09C267.131 401.9 266.956 401.725 266.726 401.565C266.496 401.405 266.161 401.325 265.721 401.325C265.361 401.325 265.071 401.38 264.851 401.49C264.631 401.59 264.456 401.71 264.326 401.85C264.206 401.99 264.121 402.135 264.071 402.285C264.031 402.425 264.006 402.53 263.996 402.6H262.961C262.961 402.5 262.971 402.395 262.991 402.285C263.011 402.185 263.036 402.08 263.066 401.97C263.106 401.85 263.161 401.725 263.231 401.595C263.311 401.465 263.436 401.345 263.606 401.235C263.786 401.115 263.996 401.015 264.236 400.935C264.486 400.855 264.751 400.79 265.031 400.74C265.321 400.69 265.616 400.665 265.916 400.665ZM264.866 406.2C264.866 406.49 264.906 406.745 264.986 406.965C265.066 407.175 265.171 407.355 265.301 407.505C265.441 407.645 265.596 407.755 265.766 407.835C265.946 407.905 266.131 407.94 266.321 407.94C266.521 407.94 266.721 407.885 266.921 407.775C267.121 407.665 267.311 407.495 267.491 407.265V404.565C267.511 404.545 267.461 404.53 267.341 404.52C267.231 404.5 267.076 404.505 266.876 404.535C266.676 404.555 266.456 404.595 266.216 404.655C265.986 404.715 265.771 404.81 265.571 404.94C265.371 405.07 265.201 405.24 265.061 405.45C264.931 405.66 264.866 405.91 264.866 406.2ZM275.427 409.065C275.107 409.065 274.722 409.03 274.272 408.96C273.832 408.9 273.407 408.78 272.997 408.6C272.597 408.43 272.252 408.205 271.962 407.925C271.672 407.635 271.517 407.275 271.497 406.845V404.865H272.022C272.062 405.475 272.192 406.025 272.412 406.515C272.642 407.005 272.932 407.415 273.282 407.745C273.642 408.065 274.052 408.29 274.512 408.42C274.982 408.55 275.482 408.555 276.012 408.435C276.252 408.365 276.462 408.215 276.642 407.985C276.822 407.745 276.952 407.475 277.032 407.175C277.112 406.875 277.132 406.575 277.092 406.275C277.052 405.965 276.937 405.7 276.747 405.48C276.677 405.4 276.587 405.315 276.477 405.225C276.377 405.135 276.212 405.015 275.982 404.865C275.752 404.705 275.437 404.505 275.037 404.265C274.647 404.025 274.137 403.72 273.507 403.35C273.227 403.18 272.967 403 272.727 402.81C272.487 402.61 272.272 402.39 272.082 402.15C271.902 401.9 271.757 401.63 271.647 401.34C271.547 401.04 271.497 400.715 271.497 400.365C271.497 399.915 271.587 399.505 271.767 399.135C271.957 398.765 272.207 398.45 272.517 398.19C272.827 397.93 273.182 397.73 273.582 397.59C273.992 397.44 274.422 397.365 274.872 397.365C275.202 397.365 275.577 397.4 275.997 397.47C276.417 397.54 276.817 397.66 277.197 397.83C277.587 398 277.917 398.225 278.187 398.505C278.457 398.785 278.602 399.135 278.622 399.555V401.535H278.067C278.007 401.225 277.942 400.915 277.872 400.605C277.802 400.295 277.717 400.005 277.617 399.735C277.527 399.465 277.427 399.23 277.317 399.03C277.207 398.83 277.097 398.675 276.987 398.565C276.827 398.425 276.627 398.305 276.387 398.205C276.147 398.095 275.887 398.015 275.607 397.965C275.337 397.915 275.062 397.895 274.782 397.905C274.502 397.915 274.247 397.965 274.017 398.055C273.797 398.145 273.617 398.285 273.477 398.475C273.337 398.655 273.267 398.885 273.267 399.165C273.267 399.455 273.332 399.725 273.462 399.975C273.592 400.215 273.747 400.435 273.927 400.635C274.107 400.825 274.287 400.99 274.467 401.13C274.657 401.26 274.812 401.355 274.932 401.415C275.252 401.605 275.612 401.805 276.012 402.015C276.412 402.215 276.802 402.445 277.182 402.705C277.562 402.955 277.907 403.235 278.217 403.545C278.527 403.845 278.752 404.185 278.892 404.565C279.072 405.185 279.112 405.765 279.012 406.305C278.922 406.845 278.717 407.32 278.397 407.73C278.077 408.14 277.662 408.46 277.152 408.69C276.642 408.93 276.067 409.055 275.427 409.065ZM284.805 408.87C284.275 408.87 283.75 408.765 283.23 408.555C282.72 408.345 282.265 408.055 281.865 407.685C281.475 407.315 281.16 406.88 280.92 406.38C280.68 405.88 280.56 405.335 280.56 404.745C280.56 404.485 280.585 404.225 280.635 403.965C280.685 403.705 280.765 403.44 280.875 403.17C281.025 402.81 281.23 402.475 281.49 402.165C281.75 401.855 282.05 401.59 282.39 401.37C282.73 401.15 283.105 400.975 283.515 400.845C283.925 400.715 284.355 400.65 284.805 400.65C285.065 400.65 285.33 400.675 285.6 400.725C285.88 400.765 286.145 400.835 286.395 400.935C286.655 401.025 286.895 401.14 287.115 401.28C287.345 401.42 287.545 401.585 287.715 401.775L287.7 401.79C287.88 401.99 287.995 402.24 288.045 402.54C288.095 402.83 288.12 403.09 288.12 403.32V403.62H287.325C287.165 403.28 287 402.965 286.83 402.675C286.67 402.385 286.485 402.135 286.275 401.925C286.075 401.705 285.855 401.535 285.615 401.415C285.375 401.285 285.105 401.22 284.805 401.22C284.485 401.22 284.2 401.335 283.95 401.565C283.7 401.795 283.49 402.085 283.32 402.435C283.16 402.785 283.035 403.17 282.945 403.59C282.855 404 282.81 404.385 282.81 404.745C282.81 405.135 282.845 405.54 282.915 405.96C282.995 406.38 283.115 406.765 283.275 407.115C283.445 407.465 283.655 407.755 283.905 407.985C284.155 408.215 284.455 408.33 284.805 408.33C285.045 408.33 285.275 408.315 285.495 408.285C285.725 408.265 285.95 408.22 286.17 408.15C286.4 408.08 286.625 407.98 286.845 407.85C287.075 407.72 287.315 407.54 287.565 407.31L287.865 407.595C287.455 408.005 286.99 408.32 286.47 408.54C285.96 408.76 285.405 408.87 284.805 408.87ZM293.567 400.665C293.837 400.665 294.092 400.715 294.332 400.815C294.572 400.905 294.787 401.015 294.977 401.145C295.167 401.275 295.322 401.405 295.442 401.535C295.562 401.655 295.647 401.74 295.697 401.79L295.382 402.135C295.202 401.995 295.017 401.87 294.827 401.76C294.667 401.66 294.492 401.57 294.302 401.49C294.112 401.41 293.937 401.37 293.777 401.37C293.627 401.37 293.457 401.415 293.267 401.505C293.087 401.595 292.907 401.725 292.727 401.895C292.547 402.055 292.377 402.255 292.217 402.495C292.067 402.725 291.952 402.985 291.872 403.275V408.885H289.817V400.695H291.872V401.31C292.102 401.13 292.357 400.98 292.637 400.86C292.927 400.73 293.237 400.665 293.567 400.665ZM295.712 401.79H295.697C295.717 401.76 295.727 401.745 295.727 401.745C295.727 401.735 295.722 401.75 295.712 401.79ZM299.462 400.68V408.855H297.422V400.68H299.462ZM298.442 399.21C298.122 399.21 297.847 399.125 297.617 398.955C297.397 398.785 297.287 398.575 297.287 398.325C297.287 398.075 297.397 397.865 297.617 397.695C297.847 397.515 298.122 397.425 298.442 397.425C298.772 397.425 299.052 397.515 299.282 397.695C299.512 397.865 299.627 398.075 299.627 398.325C299.627 398.575 299.512 398.785 299.282 398.955C299.052 399.125 298.772 399.21 298.442 399.21ZM303.895 401.1C304.585 400.82 305.255 400.705 305.905 400.755C306.555 400.805 307.135 400.99 307.645 401.31C308.165 401.62 308.58 402.06 308.89 402.63C309.21 403.19 309.37 403.845 309.37 404.595C309.37 405.115 309.295 405.63 309.145 406.14C309.005 406.65 308.785 407.105 308.485 407.505C308.185 407.905 307.805 408.23 307.345 408.48C306.895 408.73 306.36 408.855 305.74 408.855C305.34 408.855 304.985 408.79 304.675 408.66C304.375 408.53 304.115 408.38 303.895 408.21V411.63H301.84V400.65H303.58L303.895 401.1ZM303.895 407.655C304.255 407.935 304.585 408.1 304.885 408.15C305.185 408.21 305.455 408.18 305.695 408.06C305.945 407.94 306.16 407.755 306.34 407.505C306.53 407.245 306.685 406.955 306.805 406.635C306.935 406.305 307.03 405.965 307.09 405.615C307.16 405.255 307.195 404.915 307.195 404.595C307.195 404.265 307.145 403.915 307.045 403.545C306.945 403.165 306.79 402.82 306.58 402.51C306.38 402.2 306.125 401.945 305.815 401.745C305.505 401.545 305.145 401.445 304.735 401.445C304.545 401.445 304.385 401.495 304.255 401.595C304.125 401.695 304.005 401.835 303.895 402.015V407.655ZM313.521 406.53C313.531 406.83 313.566 407.095 313.626 407.325C313.686 407.535 313.776 407.72 313.896 407.88C314.016 408.04 314.196 408.12 314.436 408.12C314.536 408.12 314.686 408.075 314.886 407.985C315.086 407.885 315.316 407.77 315.576 407.64L315.726 407.865C315.766 407.925 315.811 407.995 315.861 408.075C315.591 408.215 315.316 408.34 315.036 408.45C314.806 408.55 314.541 408.635 314.241 408.705C313.951 408.785 313.671 408.825 313.401 408.825C313.151 408.825 312.906 408.785 312.666 408.705C312.436 408.635 312.231 408.505 312.051 408.315C311.881 408.125 311.741 407.87 311.631 407.55C311.531 407.23 311.481 406.825 311.481 406.335V401.31L310.566 401.295V400.68H311.481V398.49H313.521V400.68H315.246V401.295L313.521 401.31V406.53Z" fill="#243C30"/>
<path d="M25.1 127.34L40.16 123.74V169.28H28.88V128.48H25.1V127.34ZM65.8798 123.98C68.1998 123.98 70.3998 124.58 72.4798 125.78C74.5598 126.98 76.3598 128.62 77.8798 130.7C79.3998 132.74 80.5998 135.14 81.4798 137.9C82.3998 140.66 82.8598 143.62 82.8598 146.78C82.8598 149.94 82.3998 152.9 81.4798 155.66C80.5998 158.42 79.3998 160.84 77.8798 162.92C76.3598 164.96 74.5598 166.58 72.4798 167.78C70.3998 168.98 68.1998 169.58 65.8798 169.58C63.5198 169.58 61.2998 168.98 59.2198 167.78C57.1798 166.58 55.3798 164.96 53.8198 162.92C52.2998 160.84 51.0798 158.42 50.1598 155.66C49.2798 152.9 48.8398 149.94 48.8398 146.78C48.8398 143.62 49.2798 140.66 50.1598 137.9C51.0798 135.14 52.2998 132.74 53.8198 130.7C55.3798 128.62 57.1798 126.98 59.2198 125.78C61.2998 124.58 63.5198 123.98 65.8798 123.98ZM65.8798 168.02C66.6398 168.02 67.3598 167.46 68.0398 166.34C68.7598 165.22 69.3798 163.7 69.8998 161.78C70.4198 159.82 70.8198 157.56 71.0998 155C71.4198 152.4 71.5798 149.66 71.5798 146.78C71.5798 143.9 71.4198 141.18 71.0998 138.62C70.8198 136.02 70.4198 133.76 69.8998 131.84C69.3798 129.88 68.7598 128.34 68.0398 127.22C67.3598 126.1 66.6398 125.54 65.8798 125.54C65.0798 125.54 64.3198 126.1 63.5998 127.22C62.9198 128.34 62.3198 129.88 61.7998 131.84C61.2798 133.76 60.8598 136.02 60.5398 138.62C60.2598 141.18 60.1198 143.9 60.1198 146.78C60.1198 149.66 60.2598 152.4 60.5398 155C60.8598 157.56 61.2798 159.82 61.7998 161.78C62.3198 163.7 62.9198 165.22 63.5998 166.34C64.3198 167.46 65.0798 168.02 65.8798 168.02ZM105.548 123.98C107.868 123.98 110.068 124.58 112.148 125.78C114.228 126.98 116.028 128.62 117.548 130.7C119.068 132.74 120.268 135.14 121.148 137.9C122.068 140.66 122.528 143.62 122.528 146.78C122.528 149.94 122.068 152.9 121.148 155.66C120.268 158.42 119.068 160.84 117.548 162.92C116.028 164.96 114.228 166.58 112.148 167.78C110.068 168.98 107.868 169.58 105.548 169.58C103.188 169.58 100.968 168.98 98.8878 167.78C96.8478 166.58 95.0478 164.96 93.4878 162.92C91.9678 160.84 90.7478 158.42 89.8278 155.66C88.9478 152.9 88.5078 149.94 88.5078 146.78C88.5078 143.62 88.9478 140.66 89.8278 137.9C90.7478 135.14 91.9678 132.74 93.4878 130.7C95.0478 128.62 96.8478 126.98 98.8878 125.78C100.968 124.58 103.188 123.98 105.548 123.98ZM105.548 168.02C106.308 168.02 107.028 167.46 107.708 166.34C108.428 165.22 109.048 163.7 109.568 161.78C110.088 159.82 110.488 157.56 110.768 155C111.088 152.4 111.248 149.66 111.248 146.78C111.248 143.9 111.088 141.18 110.768 138.62C110.488 136.02 110.088 133.76 109.568 131.84C109.048 129.88 108.428 128.34 107.708 127.22C107.028 126.1 106.308 125.54 105.548 125.54C104.748 125.54 103.988 126.1 103.268 127.22C102.588 128.34 101.988 129.88 101.468 131.84C100.948 133.76 100.528 136.02 100.208 138.62C99.9278 141.18 99.7878 143.9 99.7878 146.78C99.7878 149.66 99.9278 152.4 100.208 155C100.528 157.56 100.948 159.82 101.468 161.78C101.988 163.7 102.588 165.22 103.268 166.34C103.988 167.46 104.748 168.02 105.548 168.02ZM148.336 127.04C150.376 127.84 152.036 129.02 153.316 130.58C154.596 132.14 155.236 133.88 155.236 135.8C155.236 137.16 154.896 138.44 154.216 139.64C153.576 140.84 152.676 141.9 151.516 142.82C150.356 143.7 148.996 144.4 147.436 144.92C145.916 145.44 144.276 145.7 142.516 145.7C140.756 145.7 139.096 145.44 137.536 144.92C136.016 144.4 134.676 143.7 133.516 142.82C132.356 141.9 131.436 140.84 130.756 139.64C130.116 138.44 129.796 137.16 129.796 135.8C129.796 133.88 130.436 132.14 131.716 130.58C132.996 129.02 134.656 127.84 136.696 127.04C138.416 126.32 140.356 125.96 142.516 125.96C144.636 125.96 146.576 126.32 148.336 127.04ZM142.516 143.54C143.516 143.54 144.336 143.34 144.976 142.94C145.616 142.54 146.116 142 146.476 141.32C146.876 140.6 147.156 139.78 147.316 138.86C147.476 137.9 147.556 136.88 147.556 135.8C147.556 134.72 147.476 133.72 147.316 132.8C147.156 131.88 146.876 131.08 146.476 130.4C146.116 129.68 145.616 129.12 144.976 128.72C144.336 128.32 143.516 128.12 142.516 128.12C141.516 128.12 140.676 128.32 139.996 128.72C139.356 129.12 138.836 129.68 138.436 130.4C138.076 131.08 137.816 131.88 137.656 132.8C137.496 133.72 137.416 134.72 137.416 135.8C137.416 136.88 137.496 137.9 137.656 138.86C137.816 139.78 138.076 140.6 138.436 141.32C138.836 142 139.356 142.54 139.996 142.94C140.676 143.34 141.516 143.54 142.516 143.54ZM179.836 149.24C181.916 150.04 183.576 151.24 184.816 152.84C186.096 154.4 186.736 156.14 186.736 158.06C186.736 159.42 186.396 160.7 185.716 161.9C185.076 163.1 184.176 164.16 183.016 165.08C181.856 165.96 180.496 166.66 178.936 167.18C177.416 167.7 175.776 167.96 174.016 167.96C172.256 167.96 170.616 167.7 169.096 167.18C167.576 166.66 166.236 165.96 165.076 165.08C163.916 164.16 162.996 163.1 162.316 161.9C161.676 160.7 161.356 159.42 161.356 158.06C161.356 156.14 161.996 154.4 163.276 152.84C164.556 151.24 166.216 150.04 168.256 149.24C169.976 148.52 171.896 148.16 174.016 148.16C176.136 148.16 178.076 148.52 179.836 149.24ZM174.016 165.74C175.016 165.74 175.836 165.54 176.476 165.14C177.156 164.74 177.676 164.2 178.036 163.52C178.436 162.8 178.716 161.98 178.876 161.06C179.036 160.1 179.116 159.1 179.116 158.06C179.116 156.98 179.036 155.98 178.876 155.06C178.716 154.1 178.436 153.28 178.036 152.6C177.676 151.88 177.156 151.32 176.476 150.92C175.836 150.52 175.016 150.32 174.016 150.32C173.056 150.32 172.236 150.52 171.556 150.92C170.916 151.32 170.396 151.88 169.996 152.6C169.636 153.28 169.376 154.1 169.216 155.06C169.056 155.98 168.976 156.98 168.976 158.06C168.976 159.1 169.056 160.1 169.216 161.06C169.376 161.98 169.636 162.8 169.996 163.52C170.396 164.2 170.916 164.74 171.556 165.14C172.236 165.54 173.056 165.74 174.016 165.74ZM152.116 169.1H142.756L164.716 124.58H174.076L152.116 169.1Z" fill="#243C30"/>
<path d="M59.86 196.26C61.4733 196.26 62.7133 196.627 63.58 197.36C64.4467 198.08 64.88 199.227 64.88 200.8C64.88 201.813 64.68 202.653 64.28 203.32C63.8933 203.987 63.3667 204.513 62.7 204.9C62.0467 205.273 61.28 205.533 60.4 205.68C59.5333 205.827 58.6267 205.88 57.68 205.84V211.28H54.36V196.3L59.86 196.26ZM57.68 205.06C58.12 205.06 58.6 205.007 59.12 204.9C59.64 204.78 60.1267 204.567 60.58 204.26C61.0333 203.953 61.4133 203.527 61.72 202.98C62.04 202.42 62.2 201.693 62.2 200.8C62.2 199.467 61.82 198.48 61.06 197.84C60.3133 197.2 59.1867 196.92 57.68 197V205.06ZM69.8766 195.34V200.52C70.1032 200.453 70.4032 200.4 70.7766 200.36C71.1632 200.307 71.5166 200.28 71.8366 200.28C73.2099 200.28 74.2766 200.66 75.0366 201.42C75.7966 202.167 76.1899 203.233 76.2166 204.62V211.06H73.4766V203.38C73.4766 202.673 73.2899 202.127 72.9166 201.74C72.5432 201.34 72.0766 201.14 71.5166 201.14C71.2099 201.14 70.9099 201.233 70.6166 201.42C70.3232 201.593 70.0766 201.873 69.8766 202.26V211.14H67.1566V195.34H69.8766ZM84.1017 200C84.8484 200 85.5484 200.153 86.2017 200.46C86.8551 200.753 87.4217 201.153 87.9017 201.66C88.3951 202.167 88.7817 202.76 89.0617 203.44C89.3417 204.12 89.4817 204.833 89.4817 205.58C89.4817 206.3 89.3417 206.993 89.0617 207.66C88.7817 208.327 88.4017 208.927 87.9217 209.46C87.4417 209.98 86.8684 210.393 86.2017 210.7C85.5484 211.02 84.8484 211.18 84.1017 211.18C83.3951 211.18 82.7151 211.027 82.0617 210.72C81.4084 210.427 80.8284 210.027 80.3217 209.52C79.8284 209 79.4351 208.4 79.1417 207.72C78.8484 207.04 78.7017 206.327 78.7017 205.58C78.7017 204.86 78.8417 204.167 79.1217 203.5C79.4017 202.82 79.7817 202.22 80.2617 201.7C80.7551 201.18 81.3284 200.767 81.9817 200.46C82.6351 200.153 83.3417 200 84.1017 200ZM84.1017 210.44C84.9151 210.44 85.5484 210.02 86.0017 209.18C86.4551 208.327 86.6817 207.127 86.6817 205.58C86.6817 204.9 86.6217 204.267 86.5017 203.68C86.3817 203.093 86.2084 202.58 85.9817 202.14C85.7684 201.7 85.5017 201.36 85.1817 201.12C84.8617 200.867 84.5017 200.74 84.1017 200.74C83.6884 200.74 83.3217 200.86 83.0017 201.1C82.6817 201.34 82.4084 201.68 82.1817 202.12C81.9684 202.547 81.8017 203.053 81.6817 203.64C81.5617 204.227 81.5017 204.873 81.5017 205.58C81.5017 206.26 81.5617 206.9 81.6817 207.5C81.8017 208.087 81.9684 208.6 82.1817 209.04C82.4084 209.467 82.6817 209.807 83.0017 210.06C83.3217 210.313 83.6884 210.44 84.1017 210.44ZM94.7017 208.04C94.7151 208.44 94.7617 208.793 94.8417 209.1C94.9217 209.38 95.0417 209.627 95.2017 209.84C95.3617 210.053 95.6017 210.16 95.9217 210.16C96.0551 210.16 96.2551 210.1 96.5217 209.98C96.7884 209.847 97.0951 209.693 97.4417 209.52L97.6417 209.82C97.6951 209.9 97.7551 209.993 97.8217 210.1C97.4617 210.287 97.0951 210.453 96.7217 210.6C96.4151 210.733 96.0617 210.847 95.6617 210.94C95.2751 211.047 94.9017 211.1 94.5417 211.1C94.2084 211.1 93.8817 211.047 93.5617 210.94C93.2551 210.847 92.9817 210.673 92.7417 210.42C92.5151 210.167 92.3284 209.827 92.1817 209.4C92.0484 208.973 91.9817 208.433 91.9817 207.78V201.08L90.7617 201.06V200.24H91.9817V197.32H94.7017V200.24H97.0017V201.06L94.7017 201.08V208.04ZM104.317 200C105.063 200 105.763 200.153 106.417 200.46C107.07 200.753 107.637 201.153 108.117 201.66C108.61 202.167 108.997 202.76 109.277 203.44C109.557 204.12 109.697 204.833 109.697 205.58C109.697 206.3 109.557 206.993 109.277 207.66C108.997 208.327 108.617 208.927 108.137 209.46C107.657 209.98 107.083 210.393 106.417 210.7C105.763 211.02 105.063 211.18 104.317 211.18C103.61 211.18 102.93 211.027 102.277 210.72C101.623 210.427 101.043 210.027 100.537 209.52C100.043 209 99.6499 208.4 99.3566 207.72C99.0632 207.04 98.9166 206.327 98.9166 205.58C98.9166 204.86 99.0566 204.167 99.3366 203.5C99.6166 202.82 99.9966 202.22 100.477 201.7C100.97 201.18 101.543 200.767 102.197 200.46C102.85 200.153 103.557 200 104.317 200ZM104.317 210.44C105.13 210.44 105.763 210.02 106.217 209.18C106.67 208.327 106.897 207.127 106.897 205.58C106.897 204.9 106.837 204.267 106.717 203.68C106.597 203.093 106.423 202.58 106.197 202.14C105.983 201.7 105.717 201.36 105.397 201.12C105.077 200.867 104.717 200.74 104.317 200.74C103.903 200.74 103.537 200.86 103.217 201.1C102.897 201.34 102.623 201.68 102.397 202.12C102.183 202.547 102.017 203.053 101.897 203.64C101.777 204.227 101.717 204.873 101.717 205.58C101.717 206.26 101.777 206.9 101.897 207.5C102.017 208.087 102.183 208.6 102.397 209.04C102.623 209.467 102.897 209.807 103.217 210.06C103.537 210.313 103.903 210.44 104.317 210.44ZM119.197 206.22C119.77 206.767 120.057 207.407 120.057 208.14C120.057 208.793 119.883 209.333 119.537 209.76C119.19 210.187 118.743 210.513 118.197 210.74C117.663 210.967 117.057 211.1 116.377 211.14C115.71 211.18 115.05 211.14 114.397 211.02C113.757 210.9 113.157 210.707 112.597 210.44C112.05 210.187 111.623 209.86 111.317 209.46C111.41 209.393 111.47 209.34 111.497 209.3C111.523 209.26 111.55 209.227 111.577 209.2C111.603 209.173 111.63 209.14 111.657 209.1C111.683 209.06 111.737 209.007 111.817 208.94C111.95 209.1 112.157 209.267 112.437 209.44C112.717 209.6 113.017 209.753 113.337 209.9C113.67 210.033 114.01 210.147 114.357 210.24C114.703 210.333 115.003 210.38 115.257 210.38C115.55 210.38 115.857 210.293 116.177 210.12C116.51 209.947 116.777 209.727 116.977 209.46C117.19 209.18 117.31 208.88 117.337 208.56C117.363 208.227 117.21 207.9 116.877 207.58C116.637 207.34 116.33 207.127 115.957 206.94C115.597 206.753 115.203 206.573 114.777 206.4C114.363 206.213 113.943 206.02 113.517 205.82C113.103 205.607 112.73 205.373 112.397 205.12C112.077 204.867 111.81 204.573 111.597 204.24C111.383 203.907 111.277 203.52 111.277 203.08C111.277 202.547 111.403 202.093 111.657 201.72C111.91 201.347 112.237 201.04 112.637 200.8C113.037 200.56 113.477 200.387 113.957 200.28C114.45 200.173 114.937 200.12 115.417 200.12C115.697 200.12 115.997 200.133 116.317 200.16C116.65 200.173 116.977 200.213 117.297 200.28C117.617 200.333 117.923 200.42 118.217 200.54C118.51 200.66 118.777 200.82 119.017 201.02C119.403 201.38 119.617 201.707 119.657 202C119.683 202.187 119.703 202.413 119.717 202.68C119.73 202.933 119.737 203.213 119.737 203.52H118.357C118.29 203.173 118.197 202.84 118.077 202.52C117.957 202.187 117.797 201.9 117.597 201.66C117.397 201.407 117.15 201.207 116.857 201.06C116.577 200.9 116.237 200.82 115.837 200.82C115.623 200.82 115.41 200.867 115.197 200.96C114.983 201.053 114.797 201.187 114.637 201.36C114.477 201.533 114.35 201.727 114.257 201.94C114.163 202.153 114.117 202.387 114.117 202.64C114.117 203 114.21 203.307 114.397 203.56C114.583 203.813 114.83 204.04 115.137 204.24C115.443 204.427 115.777 204.593 116.137 204.74C116.51 204.887 116.883 205.033 117.257 205.18C117.643 205.327 118.003 205.487 118.337 205.66C118.67 205.82 118.957 206.007 119.197 206.22ZM125.189 195.34V200.52C125.416 200.453 125.716 200.4 126.089 200.36C126.476 200.307 126.829 200.28 127.149 200.28C128.522 200.28 129.589 200.66 130.349 201.42C131.109 202.167 131.502 203.233 131.529 204.62V211.06H128.789V203.38C128.789 202.673 128.602 202.127 128.229 201.74C127.856 201.34 127.389 201.14 126.829 201.14C126.522 201.14 126.222 201.233 125.929 201.42C125.636 201.593 125.389 201.873 125.189 202.26V211.14H122.469V195.34H125.189ZM139.414 200C140.161 200 140.861 200.153 141.514 200.46C142.168 200.753 142.734 201.153 143.214 201.66C143.708 202.167 144.094 202.76 144.374 203.44C144.654 204.12 144.794 204.833 144.794 205.58C144.794 206.3 144.654 206.993 144.374 207.66C144.094 208.327 143.714 208.927 143.234 209.46C142.754 209.98 142.181 210.393 141.514 210.7C140.861 211.02 140.161 211.18 139.414 211.18C138.708 211.18 138.028 211.027 137.374 210.72C136.721 210.427 136.141 210.027 135.634 209.52C135.141 209 134.748 208.4 134.454 207.72C134.161 207.04 134.014 206.327 134.014 205.58C134.014 204.86 134.154 204.167 134.434 203.5C134.714 202.82 135.094 202.22 135.574 201.7C136.068 201.18 136.641 200.767 137.294 200.46C137.948 200.153 138.654 200 139.414 200ZM139.414 210.44C140.228 210.44 140.861 210.02 141.314 209.18C141.768 208.327 141.994 207.127 141.994 205.58C141.994 204.9 141.934 204.267 141.814 203.68C141.694 203.093 141.521 202.58 141.294 202.14C141.081 201.7 140.814 201.36 140.494 201.12C140.174 200.867 139.814 200.74 139.414 200.74C139.001 200.74 138.634 200.86 138.314 201.1C137.994 201.34 137.721 201.68 137.494 202.12C137.281 202.547 137.114 203.053 136.994 203.64C136.874 204.227 136.814 204.873 136.814 205.58C136.814 206.26 136.874 206.9 136.994 207.5C137.114 208.087 137.281 208.6 137.494 209.04C137.721 209.467 137.994 209.807 138.314 210.06C138.634 210.313 139.001 210.44 139.414 210.44ZM149.854 200.8C150.774 200.427 151.668 200.273 152.534 200.34C153.401 200.407 154.174 200.653 154.854 201.08C155.548 201.493 156.101 202.08 156.514 202.84C156.941 203.587 157.154 204.46 157.154 205.46C157.154 206.153 157.054 206.84 156.854 207.52C156.668 208.2 156.374 208.807 155.974 209.34C155.574 209.873 155.068 210.307 154.454 210.64C153.854 210.973 153.141 211.14 152.314 211.14C151.781 211.14 151.308 211.053 150.894 210.88C150.494 210.707 150.148 210.507 149.854 210.28V214.84H147.114V200.2H149.434L149.854 200.8ZM149.854 209.54C150.334 209.913 150.774 210.133 151.174 210.2C151.574 210.28 151.934 210.24 152.254 210.08C152.588 209.92 152.874 209.673 153.114 209.34C153.368 208.993 153.574 208.607 153.734 208.18C153.908 207.74 154.034 207.287 154.114 206.82C154.208 206.34 154.254 205.887 154.254 205.46C154.254 205.02 154.188 204.553 154.054 204.06C153.921 203.553 153.714 203.093 153.434 202.68C153.168 202.267 152.828 201.927 152.414 201.66C152.001 201.393 151.521 201.26 150.974 201.26C150.721 201.26 150.508 201.327 150.334 201.46C150.161 201.593 150.001 201.78 149.854 202.02V209.54Z" fill="#243C30"/>
<path d="M482.1 282.34L497.16 278.74V324.28H485.88V283.48H482.1V282.34ZM522.88 278.98C525.2 278.98 527.4 279.58 529.48 280.78C531.56 281.98 533.36 283.62 534.88 285.7C536.4 287.74 537.6 290.14 538.48 292.9C539.4 295.66 539.86 298.62 539.86 301.78C539.86 304.94 539.4 307.9 538.48 310.66C537.6 313.42 536.4 315.84 534.88 317.92C533.36 319.96 531.56 321.58 529.48 322.78C527.4 323.98 525.2 324.58 522.88 324.58C520.52 324.58 518.3 323.98 516.22 322.78C514.18 321.58 512.38 319.96 510.82 317.92C509.3 315.84 508.08 313.42 507.16 310.66C506.28 307.9 505.84 304.94 505.84 301.78C505.84 298.62 506.28 295.66 507.16 292.9C508.08 290.14 509.3 287.74 510.82 285.7C512.38 283.62 514.18 281.98 516.22 280.78C518.3 279.58 520.52 278.98 522.88 278.98ZM522.88 323.02C523.64 323.02 524.36 322.46 525.04 321.34C525.76 320.22 526.38 318.7 526.9 316.78C527.42 314.82 527.82 312.56 528.1 310C528.42 307.4 528.58 304.66 528.58 301.78C528.58 298.9 528.42 296.18 528.1 293.62C527.82 291.02 527.42 288.76 526.9 286.84C526.38 284.88 525.76 283.34 525.04 282.22C524.36 281.1 523.64 280.54 522.88 280.54C522.08 280.54 521.32 281.1 520.6 282.22C519.92 283.34 519.32 284.88 518.8 286.84C518.28 288.76 517.86 291.02 517.54 293.62C517.26 296.18 517.12 298.9 517.12 301.78C517.12 304.66 517.26 307.4 517.54 310C517.86 312.56 518.28 314.82 518.8 316.78C519.32 318.7 519.92 320.22 520.6 321.34C521.32 322.46 522.08 323.02 522.88 323.02ZM562.548 278.98C564.868 278.98 567.068 279.58 569.148 280.78C571.228 281.98 573.028 283.62 574.548 285.7C576.068 287.74 577.268 290.14 578.148 292.9C579.068 295.66 579.528 298.62 579.528 301.78C579.528 304.94 579.068 307.9 578.148 310.66C577.268 313.42 576.068 315.84 574.548 317.92C573.028 319.96 571.228 321.58 569.148 322.78C567.068 323.98 564.868 324.58 562.548 324.58C560.188 324.58 557.968 323.98 555.888 322.78C553.848 321.58 552.048 319.96 550.488 317.92C548.968 315.84 547.748 313.42 546.828 310.66C545.948 307.9 545.508 304.94 545.508 301.78C545.508 298.62 545.948 295.66 546.828 292.9C547.748 290.14 548.968 287.74 550.488 285.7C552.048 283.62 553.848 281.98 555.888 280.78C557.968 279.58 560.188 278.98 562.548 278.98ZM562.548 323.02C563.308 323.02 564.028 322.46 564.708 321.34C565.428 320.22 566.048 318.7 566.568 316.78C567.088 314.82 567.488 312.56 567.768 310C568.088 307.4 568.248 304.66 568.248 301.78C568.248 298.9 568.088 296.18 567.768 293.62C567.488 291.02 567.088 288.76 566.568 286.84C566.048 284.88 565.428 283.34 564.708 282.22C564.028 281.1 563.308 280.54 562.548 280.54C561.748 280.54 560.988 281.1 560.268 282.22C559.588 283.34 558.988 284.88 558.468 286.84C557.948 288.76 557.528 291.02 557.208 293.62C556.928 296.18 556.788 298.9 556.788 301.78C556.788 304.66 556.928 307.4 557.208 310C557.528 312.56 557.948 314.82 558.468 316.78C558.988 318.7 559.588 320.22 560.268 321.34C560.988 322.46 561.748 323.02 562.548 323.02ZM605.336 282.04C607.376 282.84 609.036 284.02 610.316 285.58C611.596 287.14 612.236 288.88 612.236 290.8C612.236 292.16 611.896 293.44 611.216 294.64C610.576 295.84 609.676 296.9 608.516 297.82C607.356 298.7 605.996 299.4 604.436 299.92C602.916 300.44 601.276 300.7 599.516 300.7C597.756 300.7 596.096 300.44 594.536 299.92C593.016 299.4 591.676 298.7 590.516 297.82C589.356 296.9 588.436 295.84 587.756 294.64C587.116 293.44 586.796 292.16 586.796 290.8C586.796 288.88 587.436 287.14 588.716 285.58C589.996 284.02 591.656 282.84 593.696 282.04C595.416 281.32 597.356 280.96 599.516 280.96C601.636 280.96 603.576 281.32 605.336 282.04ZM599.516 298.54C600.516 298.54 601.336 298.34 601.976 297.94C602.616 297.54 603.116 297 603.476 296.32C603.876 295.6 604.156 294.78 604.316 293.86C604.476 292.9 604.556 291.88 604.556 290.8C604.556 289.72 604.476 288.72 604.316 287.8C604.156 286.88 603.876 286.08 603.476 285.4C603.116 284.68 602.616 284.12 601.976 283.72C601.336 283.32 600.516 283.12 599.516 283.12C598.516 283.12 597.676 283.32 596.996 283.72C596.356 284.12 595.836 284.68 595.436 285.4C595.076 286.08 594.816 286.88 594.656 287.8C594.496 288.72 594.416 289.72 594.416 290.8C594.416 291.88 594.496 292.9 594.656 293.86C594.816 294.78 595.076 295.6 595.436 296.32C595.836 297 596.356 297.54 596.996 297.94C597.676 298.34 598.516 298.54 599.516 298.54ZM636.836 304.24C638.916 305.04 640.576 306.24 641.816 307.84C643.096 309.4 643.736 311.14 643.736 313.06C643.736 314.42 643.396 315.7 642.716 316.9C642.076 318.1 641.176 319.16 640.016 320.08C638.856 320.96 637.496 321.66 635.936 322.18C634.416 322.7 632.776 322.96 631.016 322.96C629.256 322.96 627.616 322.7 626.096 322.18C624.576 321.66 623.236 320.96 622.076 320.08C620.916 319.16 619.996 318.1 619.316 316.9C618.676 315.7 618.356 314.42 618.356 313.06C618.356 311.14 618.996 309.4 620.276 307.84C621.556 306.24 623.216 305.04 625.256 304.24C626.976 303.52 628.896 303.16 631.016 303.16C633.136 303.16 635.076 303.52 636.836 304.24ZM631.016 320.74C632.016 320.74 632.836 320.54 633.476 320.14C634.156 319.74 634.676 319.2 635.036 318.52C635.436 317.8 635.716 316.98 635.876 316.06C636.036 315.1 636.116 314.1 636.116 313.06C636.116 311.98 636.036 310.98 635.876 310.06C635.716 309.1 635.436 308.28 635.036 307.6C634.676 306.88 634.156 306.32 633.476 305.92C632.836 305.52 632.016 305.32 631.016 305.32C630.056 305.32 629.236 305.52 628.556 305.92C627.916 306.32 627.396 306.88 626.996 307.6C626.636 308.28 626.376 309.1 626.216 310.06C626.056 310.98 625.976 311.98 625.976 313.06C625.976 314.1 626.056 315.1 626.216 316.06C626.376 316.98 626.636 317.8 626.996 318.52C627.396 319.2 627.916 319.74 628.556 320.14C629.236 320.54 630.056 320.74 631.016 320.74ZM609.116 324.1H599.756L621.716 279.58H631.076L609.116 324.1Z" fill="#243C30"/>
<path d="M518.3 364.68C518.3 364.96 518.393 365.167 518.58 365.3C518.767 365.433 519 365.513 519.28 365.54V366.26C519.107 366.287 518.873 366.307 518.58 366.32C518.287 366.333 517.98 366.32 517.66 366.28C517.353 366.253 517.033 366.2 516.7 366.12C516.38 366.04 516.087 365.92 515.82 365.76C515.567 365.613 515.36 365.42 515.2 365.18C515.04 364.94 514.96 364.647 514.96 364.3V351.12H518.3V364.68ZM521.299 351.06V350.34H525.279V366.14H522.559V351.06H521.299ZM527.685 351.06V350.34H531.665V366.14H528.945V351.06H527.685ZM542.052 361.22C542.625 361.767 542.912 362.407 542.912 363.14C542.912 363.793 542.739 364.333 542.392 364.76C542.045 365.187 541.599 365.513 541.052 365.74C540.519 365.967 539.912 366.1 539.232 366.14C538.565 366.18 537.905 366.14 537.252 366.02C536.612 365.9 536.012 365.707 535.452 365.44C534.905 365.187 534.479 364.86 534.172 364.46C534.265 364.393 534.325 364.34 534.352 364.3C534.379 364.26 534.405 364.227 534.432 364.2C534.459 364.173 534.485 364.14 534.512 364.1C534.539 364.06 534.592 364.007 534.672 363.94C534.805 364.1 535.012 364.267 535.292 364.44C535.572 364.6 535.872 364.753 536.192 364.9C536.525 365.033 536.865 365.147 537.212 365.24C537.559 365.333 537.859 365.38 538.112 365.38C538.405 365.38 538.712 365.293 539.032 365.12C539.365 364.947 539.632 364.727 539.832 364.46C540.045 364.18 540.165 363.88 540.192 363.56C540.219 363.227 540.065 362.9 539.732 362.58C539.492 362.34 539.185 362.127 538.812 361.94C538.452 361.753 538.059 361.573 537.632 361.4C537.219 361.213 536.799 361.02 536.372 360.82C535.959 360.607 535.585 360.373 535.252 360.12C534.932 359.867 534.665 359.573 534.452 359.24C534.239 358.907 534.132 358.52 534.132 358.08C534.132 357.547 534.259 357.093 534.512 356.72C534.765 356.347 535.092 356.04 535.492 355.8C535.892 355.56 536.332 355.387 536.812 355.28C537.305 355.173 537.792 355.12 538.272 355.12C538.552 355.12 538.852 355.133 539.172 355.16C539.505 355.173 539.832 355.213 540.152 355.28C540.472 355.333 540.779 355.42 541.072 355.54C541.365 355.66 541.632 355.82 541.872 356.02C542.259 356.38 542.472 356.707 542.512 357C542.539 357.187 542.559 357.413 542.572 357.68C542.585 357.933 542.592 358.213 542.592 358.52H541.212C541.145 358.173 541.052 357.84 540.932 357.52C540.812 357.187 540.652 356.9 540.452 356.66C540.252 356.407 540.005 356.207 539.712 356.06C539.432 355.9 539.092 355.82 538.692 355.82C538.479 355.82 538.265 355.867 538.052 355.96C537.839 356.053 537.652 356.187 537.492 356.36C537.332 356.533 537.205 356.727 537.112 356.94C537.019 357.153 536.972 357.387 536.972 357.64C536.972 358 537.065 358.307 537.252 358.56C537.439 358.813 537.685 359.04 537.992 359.24C538.299 359.427 538.632 359.593 538.992 359.74C539.365 359.887 539.739 360.033 540.112 360.18C540.499 360.327 540.859 360.487 541.192 360.66C541.525 360.82 541.812 361.007 542.052 361.22ZM548.085 363.04C548.098 363.44 548.145 363.793 548.225 364.1C548.305 364.38 548.425 364.627 548.585 364.84C548.745 365.053 548.985 365.16 549.305 365.16C549.438 365.16 549.638 365.1 549.905 364.98C550.171 364.847 550.478 364.693 550.825 364.52L551.025 364.82C551.078 364.9 551.138 364.993 551.205 365.1C550.845 365.287 550.478 365.453 550.105 365.6C549.798 365.733 549.445 365.847 549.045 365.94C548.658 366.047 548.285 366.1 547.925 366.1C547.591 366.1 547.265 366.047 546.945 365.94C546.638 365.847 546.365 365.673 546.125 365.42C545.898 365.167 545.711 364.827 545.565 364.4C545.431 363.973 545.365 363.433 545.365 362.78V356.08L544.145 356.06V355.24H545.365V352.32H548.085V355.24H550.385V356.06L548.085 356.08V363.04ZM558.099 355.22C558.459 355.22 558.799 355.287 559.119 355.42C559.439 355.54 559.726 355.687 559.979 355.86C560.233 356.033 560.439 356.207 560.599 356.38C560.759 356.54 560.873 356.653 560.939 356.72L560.519 357.18C560.279 356.993 560.033 356.827 559.779 356.68C559.566 356.547 559.333 356.427 559.079 356.32C558.826 356.213 558.593 356.16 558.379 356.16C558.179 356.16 557.953 356.22 557.699 356.34C557.459 356.46 557.219 356.633 556.979 356.86C556.739 357.073 556.513 357.34 556.299 357.66C556.099 357.967 555.946 358.313 555.839 358.7V366.18H553.099V355.26H555.839V356.08C556.146 355.84 556.486 355.64 556.859 355.48C557.246 355.307 557.659 355.22 558.099 355.22ZM560.959 356.72H560.939C560.966 356.68 560.979 356.66 560.979 356.66C560.979 356.647 560.973 356.667 560.959 356.72ZM566.739 355.22C567.526 355.22 568.186 355.273 568.719 355.38C569.266 355.473 569.719 355.6 570.079 355.76C570.439 355.92 570.719 356.107 570.919 356.32C571.119 356.52 571.266 356.727 571.359 356.94C571.466 357.153 571.526 357.367 571.539 357.58C571.566 357.793 571.579 357.98 571.579 358.14V366.14H569.219L568.819 365.12C568.393 365.453 567.919 365.707 567.399 365.88C566.879 366.053 566.366 366.14 565.859 366.14C565.393 366.14 564.939 366.067 564.499 365.92C564.059 365.787 563.673 365.58 563.339 365.3C563.006 365.033 562.733 364.693 562.519 364.28C562.319 363.867 562.219 363.38 562.219 362.82C562.219 362.247 562.386 361.767 562.719 361.38C563.066 360.98 563.486 360.66 563.979 360.42C564.473 360.167 565.013 359.967 565.599 359.82C566.186 359.673 566.719 359.567 567.199 359.5C567.693 359.42 568.093 359.367 568.399 359.34C568.719 359.313 568.866 359.28 568.839 359.24V358.14C568.813 357.767 568.706 357.427 568.519 357.12C568.359 356.867 568.126 356.633 567.819 356.42C567.513 356.207 567.066 356.1 566.479 356.1C565.999 356.1 565.613 356.173 565.319 356.32C565.026 356.453 564.793 356.613 564.619 356.8C564.459 356.987 564.346 357.18 564.279 357.38C564.226 357.567 564.193 357.707 564.179 357.8H562.799C562.799 357.667 562.813 357.527 562.839 357.38C562.866 357.247 562.899 357.107 562.939 356.96C562.993 356.8 563.066 356.633 563.159 356.46C563.266 356.287 563.433 356.127 563.659 355.98C563.899 355.82 564.179 355.687 564.499 355.58C564.833 355.473 565.186 355.387 565.559 355.32C565.946 355.253 566.339 355.22 566.739 355.22ZM565.339 362.6C565.339 362.987 565.393 363.327 565.499 363.62C565.606 363.9 565.746 364.14 565.919 364.34C566.106 364.527 566.313 364.673 566.539 364.78C566.779 364.873 567.026 364.92 567.279 364.92C567.546 364.92 567.813 364.847 568.079 364.7C568.346 364.553 568.599 364.327 568.839 364.02V360.42C568.866 360.393 568.799 360.373 568.639 360.36C568.493 360.333 568.286 360.34 568.019 360.38C567.753 360.407 567.459 360.46 567.139 360.54C566.833 360.62 566.546 360.747 566.279 360.92C566.013 361.093 565.786 361.32 565.599 361.6C565.426 361.88 565.339 362.213 565.339 362.6ZM577.42 363.04C577.434 363.44 577.48 363.793 577.56 364.1C577.64 364.38 577.76 364.627 577.92 364.84C578.08 365.053 578.32 365.16 578.64 365.16C578.774 365.16 578.974 365.1 579.24 364.98C579.507 364.847 579.814 364.693 580.16 364.52L580.36 364.82C580.414 364.9 580.474 364.993 580.54 365.1C580.18 365.287 579.814 365.453 579.44 365.6C579.134 365.733 578.78 365.847 578.38 365.94C577.994 366.047 577.62 366.1 577.26 366.1C576.927 366.1 576.6 366.047 576.28 365.94C575.974 365.847 575.7 365.673 575.46 365.42C575.234 365.167 575.047 364.827 574.9 364.4C574.767 363.973 574.7 363.433 574.7 362.78V356.08L573.48 356.06V355.24H574.7V352.32H577.42V355.24H579.72V356.06L577.42 356.08V363.04ZM585.295 355.24V366.14H582.575V355.24H585.295ZM583.935 353.28C583.509 353.28 583.142 353.167 582.835 352.94C582.542 352.713 582.395 352.433 582.395 352.1C582.395 351.767 582.542 351.487 582.835 351.26C583.142 351.02 583.509 350.9 583.935 350.9C584.375 350.9 584.749 351.02 585.055 351.26C585.362 351.487 585.515 351.767 585.515 352.1C585.515 352.433 585.362 352.713 585.055 352.94C584.749 353.167 584.375 353.28 583.935 353.28ZM593.266 355C594.012 355 594.712 355.153 595.366 355.46C596.019 355.753 596.586 356.153 597.066 356.66C597.559 357.167 597.946 357.76 598.226 358.44C598.506 359.12 598.646 359.833 598.646 360.58C598.646 361.3 598.506 361.993 598.226 362.66C597.946 363.327 597.566 363.927 597.086 364.46C596.606 364.98 596.032 365.393 595.366 365.7C594.712 366.02 594.012 366.18 593.266 366.18C592.559 366.18 591.879 366.027 591.226 365.72C590.572 365.427 589.992 365.027 589.486 364.52C588.992 364 588.599 363.4 588.306 362.72C588.012 362.04 587.866 361.327 587.866 360.58C587.866 359.86 588.006 359.167 588.286 358.5C588.566 357.82 588.946 357.22 589.426 356.7C589.919 356.18 590.492 355.767 591.146 355.46C591.799 355.153 592.506 355 593.266 355ZM593.266 365.44C594.079 365.44 594.712 365.02 595.166 364.18C595.619 363.327 595.846 362.127 595.846 360.58C595.846 359.9 595.786 359.267 595.666 358.68C595.546 358.093 595.372 357.58 595.146 357.14C594.932 356.7 594.666 356.36 594.346 356.12C594.026 355.867 593.666 355.74 593.266 355.74C592.852 355.74 592.486 355.86 592.166 356.1C591.846 356.34 591.572 356.68 591.346 357.12C591.132 357.547 590.966 358.053 590.846 358.64C590.726 359.227 590.666 359.873 590.666 360.58C590.666 361.26 590.726 361.9 590.846 362.5C590.966 363.087 591.132 363.6 591.346 364.04C591.572 364.467 591.846 364.807 592.166 365.06C592.486 365.313 592.852 365.44 593.266 365.44ZM605.986 355.1C607.399 355.1 608.479 355.487 609.226 356.26C609.972 357.033 610.379 358.153 610.446 359.62V366.08H607.546V358.08C607.546 357.373 607.366 356.827 607.006 356.44C606.659 356.053 606.226 355.86 605.706 355.86C605.172 355.86 604.732 356.053 604.386 356.44C604.039 356.827 603.866 357.373 603.866 358.08V366.14H601.126V355.24H603.866V355.48C604.146 355.347 604.486 355.253 604.886 355.2C605.299 355.133 605.666 355.1 605.986 355.1Z" fill="#243C30"/>
<path d="M326.78 97.24C328.3 97.56 329.94 97.94 331.7 98.38C333.5 98.78 335.16 99.4 336.68 100.24C338.24 101.04 339.52 102.14 340.52 103.54C341.56 104.9 342.08 106.72 342.08 109C342.08 111.28 341.48 113.18 340.28 114.7C339.12 116.22 337.64 117.44 335.84 118.36C334.04 119.28 332.08 119.94 329.96 120.34C327.88 120.74 325.94 120.94 324.14 120.94C322.34 120.94 320.38 120.74 318.26 120.34C316.18 119.94 314.24 119.28 312.44 118.36C310.64 117.44 309.14 116.22 307.94 114.7C306.78 113.18 306.2 111.28 306.2 109C306.2 107.48 306.44 106.18 306.92 105.1C307.4 103.98 308.04 103.02 308.84 102.22C309.64 101.42 310.56 100.76 311.6 100.24C312.64 99.68 313.72 99.22 314.84 98.86C316 98.5 317.14 98.2 318.26 97.96C319.42 97.72 320.5 97.48 321.5 97.24C319.9 96.84 318.28 96.42 316.64 95.98C315 95.54 313.5 94.92 312.14 94.12C310.82 93.32 309.72 92.26 308.84 90.94C308 89.62 307.58 87.88 307.58 85.72C307.58 83.56 308.16 81.82 309.32 80.5C310.48 79.14 311.9 78.08 313.58 77.32C315.26 76.52 317.06 75.98 318.98 75.7C320.9 75.42 322.62 75.28 324.14 75.28C325.66 75.28 327.38 75.42 329.3 75.7C331.22 75.98 333.02 76.52 334.7 77.32C336.38 78.08 337.8 79.14 338.96 80.5C340.12 81.82 340.7 83.56 340.7 85.72C340.7 87.88 340.28 89.62 339.44 90.94C338.6 92.26 337.5 93.32 336.14 94.12C334.82 94.92 333.32 95.54 331.64 95.98C330 96.42 328.38 96.84 326.78 97.24ZM316.7 86.08C316.7 87.32 316.88 88.52 317.24 89.68C317.6 90.8 318.1 91.82 318.74 92.74C319.42 93.66 320.22 94.46 321.14 95.14C322.06 95.82 323.06 96.32 324.14 96.64C325.22 96.32 326.2 95.82 327.08 95.14C328 94.46 328.78 93.66 329.42 92.74C330.1 91.82 330.62 90.8 330.98 89.68C331.38 88.52 331.58 87.32 331.58 86.08C331.58 84.72 331.42 83.46 331.1 82.3C330.82 81.1 330.36 80.06 329.72 79.18C329.12 78.3 328.34 77.62 327.38 77.14C326.46 76.62 325.38 76.36 324.14 76.36C322.86 76.36 321.76 76.62 320.84 77.14C319.92 77.62 319.14 78.3 318.5 79.18C317.9 80.06 317.44 81.1 317.12 82.3C316.84 83.46 316.7 84.72 316.7 86.08ZM324.14 119.86C325.46 119.86 326.66 119.56 327.74 118.96C328.82 118.4 329.74 117.64 330.5 116.68C331.3 115.68 331.9 114.54 332.3 113.26C332.74 111.94 332.96 110.56 332.96 109.12C332.96 106.04 332.2 103.62 330.68 101.86C329.2 100.06 327.02 98.76 324.14 97.96C321.26 98.76 319.06 100.06 317.54 101.86C316.06 103.62 315.32 106.04 315.32 109.12C315.32 110.56 315.52 111.94 315.92 113.26C316.36 114.54 316.96 115.68 317.72 116.68C318.52 117.64 319.46 118.4 320.54 118.96C321.62 119.56 322.82 119.86 324.14 119.86ZM363.185 74.98C365.505 74.98 367.705 75.58 369.785 76.78C371.865 77.98 373.665 79.62 375.185 81.7C376.705 83.74 377.905 86.14 378.785 88.9C379.705 91.66 380.165 94.62 380.165 97.78C380.165 100.94 379.705 103.9 378.785 106.66C377.905 109.42 376.705 111.84 375.185 113.92C373.665 115.96 371.865 117.58 369.785 118.78C367.705 119.98 365.505 120.58 363.185 120.58C360.825 120.58 358.605 119.98 356.525 118.78C354.485 117.58 352.685 115.96 351.125 113.92C349.605 111.84 348.385 109.42 347.465 106.66C346.585 103.9 346.145 100.94 346.145 97.78C346.145 94.62 346.585 91.66 347.465 88.9C348.385 86.14 349.605 83.74 351.125 81.7C352.685 79.62 354.485 77.98 356.525 76.78C358.605 75.58 360.825 74.98 363.185 74.98ZM363.185 119.02C363.945 119.02 364.665 118.46 365.345 117.34C366.065 116.22 366.685 114.7 367.205 112.78C367.725 110.82 368.125 108.56 368.405 106C368.725 103.4 368.885 100.66 368.885 97.78C368.885 94.9 368.725 92.18 368.405 89.62C368.125 87.02 367.725 84.76 367.205 82.84C366.685 80.88 366.065 79.34 365.345 78.22C364.665 77.1 363.945 76.54 363.185 76.54C362.385 76.54 361.625 77.1 360.905 78.22C360.225 79.34 359.625 80.88 359.105 82.84C358.585 84.76 358.165 87.02 357.845 89.62C357.565 92.18 357.425 94.9 357.425 97.78C357.425 100.66 357.565 103.4 357.845 106C358.165 108.56 358.585 110.82 359.105 112.78C359.625 114.7 360.225 116.22 360.905 117.34C361.625 118.46 362.385 119.02 363.185 119.02ZM405.973 78.04C408.013 78.84 409.673 80.02 410.953 81.58C412.233 83.14 412.873 84.88 412.873 86.8C412.873 88.16 412.533 89.44 411.853 90.64C411.213 91.84 410.313 92.9 409.153 93.82C407.993 94.7 406.633 95.4 405.073 95.92C403.553 96.44 401.913 96.7 400.153 96.7C398.393 96.7 396.733 96.44 395.173 95.92C393.653 95.4 392.313 94.7 391.153 93.82C389.993 92.9 389.073 91.84 388.393 90.64C387.753 89.44 387.433 88.16 387.433 86.8C387.433 84.88 388.073 83.14 389.353 81.58C390.633 80.02 392.293 78.84 394.333 78.04C396.053 77.32 397.993 76.96 400.153 76.96C402.273 76.96 404.213 77.32 405.973 78.04ZM400.153 94.54C401.153 94.54 401.973 94.34 402.613 93.94C403.253 93.54 403.753 93 404.113 92.32C404.513 91.6 404.793 90.78 404.953 89.86C405.113 88.9 405.193 87.88 405.193 86.8C405.193 85.72 405.113 84.72 404.953 83.8C404.793 82.88 404.513 82.08 404.113 81.4C403.753 80.68 403.253 80.12 402.613 79.72C401.973 79.32 401.153 79.12 400.153 79.12C399.153 79.12 398.313 79.32 397.633 79.72C396.993 80.12 396.473 80.68 396.073 81.4C395.713 82.08 395.453 82.88 395.293 83.8C395.133 84.72 395.053 85.72 395.053 86.8C395.053 87.88 395.133 88.9 395.293 89.86C395.453 90.78 395.713 91.6 396.073 92.32C396.473 93 396.993 93.54 397.633 93.94C398.313 94.34 399.153 94.54 400.153 94.54ZM437.473 100.24C439.553 101.04 441.213 102.24 442.453 103.84C443.733 105.4 444.373 107.14 444.373 109.06C444.373 110.42 444.033 111.7 443.353 112.9C442.713 114.1 441.813 115.16 440.653 116.08C439.493 116.96 438.133 117.66 436.573 118.18C435.053 118.7 433.413 118.96 431.653 118.96C429.893 118.96 428.253 118.7 426.733 118.18C425.213 117.66 423.873 116.96 422.713 116.08C421.553 115.16 420.633 114.1 419.953 112.9C419.313 111.7 418.993 110.42 418.993 109.06C418.993 107.14 419.633 105.4 420.913 103.84C422.193 102.24 423.853 101.04 425.893 100.24C427.613 99.52 429.533 99.16 431.653 99.16C433.773 99.16 435.713 99.52 437.473 100.24ZM431.653 116.74C432.653 116.74 433.473 116.54 434.113 116.14C434.793 115.74 435.313 115.2 435.673 114.52C436.073 113.8 436.353 112.98 436.513 112.06C436.673 111.1 436.753 110.1 436.753 109.06C436.753 107.98 436.673 106.98 436.513 106.06C436.353 105.1 436.073 104.28 435.673 103.6C435.313 102.88 434.793 102.32 434.113 101.92C433.473 101.52 432.653 101.32 431.653 101.32C430.693 101.32 429.873 101.52 429.193 101.92C428.553 102.32 428.033 102.88 427.633 103.6C427.273 104.28 427.013 105.1 426.853 106.06C426.693 106.98 426.613 107.98 426.613 109.06C426.613 110.1 426.693 111.1 426.853 112.06C427.013 112.98 427.273 113.8 427.633 114.52C428.033 115.2 428.553 115.74 429.193 116.14C429.873 116.54 430.693 116.74 431.653 116.74ZM409.753 120.1H400.393L422.353 75.58H431.713L409.753 120.1Z" fill="#243C30"/>
<path d="M334.62 160.66C334.62 160.94 334.713 161.147 334.9 161.28C335.1 161.413 335.333 161.493 335.6 161.52V162.26C335.52 162.273 335.427 162.28 335.32 162.28H335C334.893 162.28 334.767 162.273 334.62 162.26V162.28L334.6 162.26C334.28 162.247 333.927 162.22 333.54 162.18C333.153 162.14 332.793 162.06 332.46 161.94C332.127 161.82 331.847 161.653 331.62 161.44C331.393 161.24 331.28 160.98 331.28 160.66V155.06H325.82V162.28H322.48V147.12H325.82V154.36H331.28V147.12H334.62V160.66ZM345.077 147.86V162.08H341.737V147.86H338.757C338.691 147.86 338.611 147.873 338.517 147.9C338.424 147.927 338.331 147.973 338.237 148.04C338.157 148.107 338.084 148.2 338.017 148.32C337.951 148.44 337.911 148.6 337.897 148.8V148.86H337.157C337.117 148.527 337.144 148.233 337.237 147.98C337.331 147.767 337.491 147.567 337.717 147.38C337.944 147.193 338.291 147.1 338.757 147.1H349.117V147.86H345.077ZM367.577 160.66C367.577 160.727 367.591 160.807 367.617 160.9C367.644 160.993 367.691 161.08 367.757 161.16C367.824 161.253 367.917 161.333 368.037 161.4C368.157 161.467 368.317 161.507 368.517 161.52H368.577V162.26C368.457 162.273 368.291 162.28 368.077 162.28H366.117C365.664 162.28 365.311 162.16 365.057 161.92C364.804 161.68 364.617 161.413 364.497 161.12C364.364 160.787 364.284 160.4 364.257 159.96V151.42L360.337 162.24V162.28H357.377L353.137 150.56V162.28H352.397V147.32L355.277 147.3L360.157 160.54L364.917 147.3H367.577V160.66ZM375.657 147.3V161.54H382.337V162.28H372.337V147.3H375.657ZM387.617 159.62V159.68C387.604 160.293 387.511 160.78 387.337 161.14C387.164 161.513 386.964 161.8 386.737 162C386.484 162.24 386.197 162.407 385.877 162.5V161.36C385.411 161.36 385.011 161.193 384.677 160.86C384.357 160.527 384.197 160.127 384.197 159.66C384.197 159.193 384.364 158.793 384.697 158.46C385.031 158.127 385.437 157.96 385.917 157.96C386.384 157.96 386.777 158.12 387.097 158.44C387.431 158.76 387.604 159.153 387.617 159.62ZM405.869 147.78C406.309 147.967 406.683 148.2 406.989 148.48C407.309 148.747 407.629 149.06 407.949 149.42C408.189 149.7 408.363 149.993 408.469 150.3C408.589 150.607 408.676 150.893 408.729 151.16C408.769 151.467 408.789 151.773 408.789 152.08H408.049C407.796 151.493 407.509 150.947 407.189 150.44C406.883 149.92 406.529 149.473 406.129 149.1C405.729 148.713 405.283 148.413 404.789 148.2C404.309 147.987 403.769 147.88 403.169 147.88C402.609 147.88 402.083 148.073 401.589 148.46C401.109 148.847 400.683 149.353 400.309 149.98C399.936 150.607 399.643 151.327 399.429 152.14C399.229 152.953 399.129 153.793 399.129 154.66C399.129 155.58 399.229 156.447 399.429 157.26C399.643 158.073 399.936 158.793 400.309 159.42C400.683 160.033 401.109 160.527 401.589 160.9C402.083 161.26 402.609 161.44 403.169 161.44C403.849 161.44 404.429 161.38 404.909 161.26C405.389 161.153 405.816 161 406.189 160.8C406.563 160.587 406.896 160.34 407.189 160.06C407.496 159.767 407.823 159.44 408.169 159.08L408.669 159.58C408.576 159.713 408.476 159.833 408.369 159.94C408.009 160.287 407.636 160.6 407.249 160.88C406.876 161.147 406.469 161.373 406.029 161.56C405.109 161.96 404.156 162.16 403.169 162.16C402.183 162.16 401.229 161.96 400.309 161.56C399.883 161.373 399.476 161.147 399.089 160.88C398.703 160.6 398.336 160.287 397.989 159.94C397.336 159.26 396.823 158.467 396.449 157.56C396.076 156.667 395.889 155.7 395.889 154.66C395.889 153.633 396.076 152.667 396.449 151.76C396.809 150.88 397.323 150.093 397.989 149.4C398.669 148.693 399.443 148.153 400.309 147.78C401.229 147.38 402.183 147.18 403.169 147.18C403.676 147.18 404.136 147.227 404.549 147.32C404.976 147.413 405.416 147.567 405.869 147.78ZM416.206 162.42C415.779 162.42 415.266 162.373 414.666 162.28C414.079 162.2 413.512 162.04 412.966 161.8C412.432 161.573 411.972 161.273 411.586 160.9C411.199 160.513 410.992 160.033 410.966 159.46V156.82H411.666C411.719 157.633 411.892 158.367 412.186 159.02C412.492 159.673 412.879 160.22 413.346 160.66C413.826 161.087 414.372 161.387 414.986 161.56C415.612 161.733 416.279 161.74 416.986 161.58C417.306 161.487 417.586 161.287 417.826 160.98C418.066 160.66 418.239 160.3 418.346 159.9C418.452 159.5 418.479 159.1 418.426 158.7C418.372 158.287 418.219 157.933 417.966 157.64C417.872 157.533 417.752 157.42 417.606 157.3C417.472 157.18 417.252 157.02 416.946 156.82C416.639 156.607 416.219 156.34 415.686 156.02C415.166 155.7 414.486 155.293 413.646 154.8C413.272 154.573 412.926 154.333 412.606 154.08C412.286 153.813 411.999 153.52 411.746 153.2C411.506 152.867 411.312 152.507 411.166 152.12C411.032 151.72 410.966 151.287 410.966 150.82C410.966 150.22 411.086 149.673 411.326 149.18C411.579 148.687 411.912 148.267 412.326 147.92C412.739 147.573 413.212 147.307 413.746 147.12C414.292 146.92 414.866 146.82 415.466 146.82C415.906 146.82 416.406 146.867 416.966 146.96C417.526 147.053 418.059 147.213 418.566 147.44C419.086 147.667 419.526 147.967 419.886 148.34C420.246 148.713 420.439 149.18 420.466 149.74V152.38H419.726C419.646 151.967 419.559 151.553 419.466 151.14C419.372 150.727 419.259 150.34 419.126 149.98C419.006 149.62 418.872 149.307 418.726 149.04C418.579 148.773 418.432 148.567 418.286 148.42C418.072 148.233 417.806 148.073 417.486 147.94C417.166 147.793 416.819 147.687 416.446 147.62C416.086 147.553 415.719 147.527 415.346 147.54C414.972 147.553 414.632 147.62 414.326 147.74C414.032 147.86 413.792 148.047 413.606 148.3C413.419 148.54 413.326 148.847 413.326 149.22C413.326 149.607 413.412 149.967 413.586 150.3C413.759 150.62 413.966 150.913 414.206 151.18C414.446 151.433 414.686 151.653 414.926 151.84C415.179 152.013 415.386 152.14 415.546 152.22C415.972 152.473 416.452 152.74 416.986 153.02C417.519 153.287 418.039 153.593 418.546 153.94C419.052 154.273 419.512 154.647 419.926 155.06C420.339 155.46 420.639 155.913 420.826 156.42C421.066 157.247 421.119 158.02 420.986 158.74C420.866 159.46 420.592 160.093 420.166 160.64C419.739 161.187 419.186 161.613 418.506 161.92C417.826 162.24 417.059 162.407 416.206 162.42ZM428.53 162.42C428.103 162.42 427.59 162.373 426.99 162.28C426.403 162.2 425.837 162.04 425.29 161.8C424.757 161.573 424.297 161.273 423.91 160.9C423.523 160.513 423.317 160.033 423.29 159.46V156.82H423.99C424.043 157.633 424.217 158.367 424.51 159.02C424.817 159.673 425.203 160.22 425.67 160.66C426.15 161.087 426.697 161.387 427.31 161.56C427.937 161.733 428.603 161.74 429.31 161.58C429.63 161.487 429.91 161.287 430.15 160.98C430.39 160.66 430.563 160.3 430.67 159.9C430.777 159.5 430.803 159.1 430.75 158.7C430.697 158.287 430.543 157.933 430.29 157.64C430.197 157.533 430.077 157.42 429.93 157.3C429.797 157.18 429.577 157.02 429.27 156.82C428.963 156.607 428.543 156.34 428.01 156.02C427.49 155.7 426.81 155.293 425.97 154.8C425.597 154.573 425.25 154.333 424.93 154.08C424.61 153.813 424.323 153.52 424.07 153.2C423.83 152.867 423.637 152.507 423.49 152.12C423.357 151.72 423.29 151.287 423.29 150.82C423.29 150.22 423.41 149.673 423.65 149.18C423.903 148.687 424.237 148.267 424.65 147.92C425.063 147.573 425.537 147.307 426.07 147.12C426.617 146.92 427.19 146.82 427.79 146.82C428.23 146.82 428.73 146.867 429.29 146.96C429.85 147.053 430.383 147.213 430.89 147.44C431.41 147.667 431.85 147.967 432.21 148.34C432.57 148.713 432.763 149.18 432.79 149.74V152.38H432.05C431.97 151.967 431.883 151.553 431.79 151.14C431.697 150.727 431.583 150.34 431.45 149.98C431.33 149.62 431.197 149.307 431.05 149.04C430.903 148.773 430.757 148.567 430.61 148.42C430.397 148.233 430.13 148.073 429.81 147.94C429.49 147.793 429.143 147.687 428.77 147.62C428.41 147.553 428.043 147.527 427.67 147.54C427.297 147.553 426.957 147.62 426.65 147.74C426.357 147.86 426.117 148.047 425.93 148.3C425.743 148.54 425.65 148.847 425.65 149.22C425.65 149.607 425.737 149.967 425.91 150.3C426.083 150.62 426.29 150.913 426.53 151.18C426.77 151.433 427.01 151.653 427.25 151.84C427.503 152.013 427.71 152.14 427.87 152.22C428.297 152.473 428.777 152.74 429.31 153.02C429.843 153.287 430.363 153.593 430.87 153.94C431.377 154.273 431.837 154.647 432.25 155.06C432.663 155.46 432.963 155.913 433.15 156.42C433.39 157.247 433.443 158.02 433.31 158.74C433.19 159.46 432.917 160.093 432.49 160.64C432.063 161.187 431.51 161.613 430.83 161.92C430.15 162.24 429.383 162.407 428.53 162.42Z" fill="#243C30"/>
</svg>
